<?xml version="1.0" encoding="UTF-8"?>
<svg width="200px" height="170px" viewBox="0 0 200 170" version="1.1" xmlns="http://www.w3.org/2000/svg" xmlns:xlink="http://www.w3.org/1999/xlink">
    <!-- Generator: Sketch 44.1 (41455) - http://www.bohemiancoding.com/sketch -->
    <title>building-team</title>
    <desc>Created with Sketch.</desc>
    <defs></defs>
    <g id="Classy" stroke="none" stroke-width="1" fill="none" fill-rule="evenodd">
        <g id="building-team">
            <g id="wall" transform="translate(14.000000, 55.000000)">
                <g id="Group-2" transform="translate(16.298643, 0.000000)">
                    <g id="wall" transform="translate(0.000000, 16.640000)">
                        <rect id="Rectangle-43" fill="#F73E3E" x="0" y="0.832" width="131" height="85.696"></rect>
                        <g id="Group-57"></g>
                    </g>
                    <polygon id="Path-65" fill="#B80000" points="130.745313 14.1990308 145.269253 0.912360363 145.269253 83.7861257 130.745313 103.272787"></polygon>
                    <polygon id="Path-66" fill="#B80000" points="145.702938 0.688884971 16.0376244 0.688884971 0.220501856 18.2010233 130.805934 18.2010233"></polygon>
                    <g id="Group-55" transform="translate(0.000000, 16.640000)">
                        <g id="Group-34" transform="translate(11.656109, 8.320000)">
                            <g id="Group-28" transform="translate(29.140271, 29.952000)">
                                <g id="Group-26">
                                    <ellipse id="Oval-12" fill-opacity="0.8" fill="#000000" cx="1.24886878" cy="1.248" rx="1.24886878" ry="1.248"></ellipse>
                                    <ellipse id="Oval-12" fill-opacity="0.8" fill="#000000" cx="14.5701357" cy="1.248" rx="1.24886878" ry="1.248"></ellipse>
                                    <polyline id="Path-16" stroke-opacity="0.8" stroke="#000000" stroke-width="2" stroke-linecap="round" stroke-linejoin="round" points="6.66063348 0.832 6.66063348 5.7271056 10.7029483 5.7271056"></polyline>
                                    <path d="M2.49773756,8.32 C2.49773756,12.833578 12.9328918,12.8960667 12.9328918,8.32" id="Path-17" stroke-opacity="0.8" stroke="#000000" stroke-width="2" stroke-linecap="round" stroke-linejoin="round"></path>
                                </g>
                            </g>
                            <g id="Group-28" transform="translate(53.285068, 20.800000)">
                                <rect id="Rectangle-19" fill="#F73E3E" x="0" y="0" width="39.9638009" height="28.288"></rect>
                                <g id="Group-26" transform="translate(11.656109, 9.152000)">
                                    <ellipse id="Oval-12" fill-opacity="0.8" fill="#000000" cx="1.24886878" cy="1.248" rx="1.24886878" ry="1.248"></ellipse>
                                    <ellipse id="Oval-12" fill-opacity="0.8" fill="#000000" cx="14.5701357" cy="1.248" rx="1.24886878" ry="1.248"></ellipse>
                                    <polyline id="Path-16" stroke-opacity="0.8" stroke="#000000" stroke-width="2" stroke-linecap="round" stroke-linejoin="round" points="6.66063348 0.832 6.66063348 5.7271056 10.7029483 5.7271056"></polyline>
                                    <path d="M2.49773756,8.32 C2.49773756,12.833578 12.9328918,12.8960667 12.9328918,8.32" id="Path-17" stroke-opacity="0.8" stroke="#000000" stroke-width="2" stroke-linecap="round" stroke-linejoin="round"></path>
                                </g>
                            </g>
                            <g id="Group-56" transform="translate(0.000000, 56.576000)">
                                <g id="Group-28" transform="translate(0.000000, 1.664000)">
                                    <g id="Group-26">
                                        <ellipse id="Oval-12" fill-opacity="0.8" fill="#000000" cx="1.24886878" cy="1.248" rx="1.24886878" ry="1.248"></ellipse>
                                        <ellipse id="Oval-12" fill-opacity="0.8" fill="#000000" cx="14.5701357" cy="1.248" rx="1.24886878" ry="1.248"></ellipse>
                                        <polyline id="Path-16" stroke-opacity="0.8" stroke="#000000" stroke-width="2" stroke-linecap="round" stroke-linejoin="round" points="6.66063348 0.832 6.66063348 5.7271056 10.7029483 5.7271056"></polyline>
                                        <path d="M2.49773756,8.32 C2.49773756,12.833578 12.9328918,12.8960667 12.9328918,8.32" id="Path-17" stroke-opacity="0.8" stroke="#000000" stroke-width="2" stroke-linecap="round" stroke-linejoin="round"></path>
                                    </g>
                                </g>
                                <g id="Group-28" transform="translate(43.294118, 0.000000)">
                                    <g id="Group-26">
                                        <ellipse id="Oval-12" fill-opacity="0.8" fill="#000000" cx="1.24886878" cy="1.248" rx="1.24886878" ry="1.248"></ellipse>
                                        <ellipse id="Oval-12" fill-opacity="0.8" fill="#000000" cx="14.5701357" cy="1.248" rx="1.24886878" ry="1.248"></ellipse>
                                        <polyline id="Path-16" stroke-opacity="0.8" stroke="#000000" stroke-width="2" stroke-linecap="round" stroke-linejoin="round" points="6.66063348 2.496 6.66063348 7.3911056 10.7029483 7.3911056"></polyline>
                                        <path d="M2.49773756,9.984 C2.49773756,14.497578 12.9328918,14.5600667 12.9328918,9.984" id="Path-17" stroke-opacity="0.8" stroke="#000000" stroke-width="2" stroke-linecap="round" stroke-linejoin="round"></path>
                                    </g>
                                </g>
                                <g id="Group-28" transform="translate(87.420814, 1.664000)">
                                    <g id="Group-26">
                                        <ellipse id="Oval-12" fill-opacity="0.8" fill="#000000" cx="1.24886878" cy="1.248" rx="1.24886878" ry="1.248"></ellipse>
                                        <ellipse id="Oval-12" fill-opacity="0.8" fill="#000000" cx="13.7375566" cy="1.248" rx="1.24886878" ry="1.248"></ellipse>
                                        <polyline id="Path-16" stroke-opacity="0.8" stroke="#000000" stroke-width="2" stroke-linecap="round" stroke-linejoin="round" points="6.66063348 0 6.66063348 4.8951056 10.7029483 4.8951056"></polyline>
                                        <path d="M4.39246194,8.45155477 C4.39246194,12.9651328 14.8276162,13.0276215 14.8276162,8.45155477" id="Path-17" stroke-opacity="0.8" stroke="#000000" stroke-width="2" stroke-linecap="round" stroke-linejoin="round" transform="translate(9.610039, 10.155883) rotate(-11.000000) translate(-9.610039, -10.155883) "></path>
                                    </g>
                                </g>
                            </g>
                            <g id="Group-56">
                                <g id="Group-28" transform="translate(0.000000, 1.664000)">
                                    <g id="Group-26">
                                        <ellipse id="Oval-12" fill-opacity="0.8" fill="#000000" cx="1.24886878" cy="1.248" rx="1.24886878" ry="1.248"></ellipse>
                                        <ellipse id="Oval-12" fill-opacity="0.8" fill="#000000" cx="14.5701357" cy="1.248" rx="1.24886878" ry="1.248"></ellipse>
                                        <polyline id="Path-16" stroke-opacity="0.8" stroke="#000000" stroke-width="2" stroke-linecap="round" stroke-linejoin="round" points="6.66063348 0.832 6.66063348 5.7271056 10.7029483 5.7271056"></polyline>
                                        <path d="M2.49773756,8.32 C2.49773756,12.833578 12.9328918,12.8960667 12.9328918,8.32" id="Path-17" stroke-opacity="0.8" stroke="#000000" stroke-width="2" stroke-linecap="round" stroke-linejoin="round"></path>
                                    </g>
                                </g>
                                <g id="Group-28" transform="translate(43.294118, 0.000000)">
                                    <g id="Group-26">
                                        <ellipse id="Oval-12" fill-opacity="0.8" fill="#000000" cx="1.24886878" cy="1.248" rx="1.24886878" ry="1.248"></ellipse>
                                        <ellipse id="Oval-12" fill-opacity="0.8" fill="#000000" cx="14.5701357" cy="1.248" rx="1.24886878" ry="1.248"></ellipse>
                                        <polyline id="Path-16" stroke-opacity="0.8" stroke="#000000" stroke-width="2" stroke-linecap="round" stroke-linejoin="round" points="6.66063348 2.496 6.66063348 7.3911056 10.7029483 7.3911056"></polyline>
                                        <path d="M3,11 C3,16.0761569 13.5083299,16.2390322 13.5083299,11" id="Path-17" stroke-opacity="0.8" stroke="#000000" stroke-width="2" stroke-linecap="round" stroke-linejoin="round"></path>
                                    </g>
                                </g>
                                <g id="Group-28" transform="translate(87.420814, 1.664000)">
                                    <g id="Group-26">
                                        <ellipse id="Oval-12" fill-opacity="0.8" fill="#000000" cx="1.24886878" cy="1.248" rx="1.24886878" ry="1.248"></ellipse>
                                        <ellipse id="Oval-12" fill-opacity="0.8" fill="#000000" cx="13.7375566" cy="1.248" rx="1.24886878" ry="1.248"></ellipse>
                                        <polyline id="Path-16" stroke-opacity="0.8" stroke="#000000" stroke-width="2" stroke-linecap="round" stroke-linejoin="round" points="6.66063348 0 6.66063348 4.8951056 10.7029483 4.8951056"></polyline>
                                        <path d="M4.39246194,8.45155477 C4.39246194,12.9651328 14.8276162,13.0276215 14.8276162,8.45155477" id="Path-17" stroke-opacity="0.8" stroke="#000000" stroke-width="2" stroke-linecap="round" stroke-linejoin="round" transform="translate(9.610039, 10.155883) rotate(-11.000000) translate(-9.610039, -10.155883) "></path>
                                    </g>
                                </g>
                            </g>
                        </g>
                        <g id="Group-28" transform="translate(108.235294, 37.440000)">
                            <g id="Group-26">
                                <ellipse id="Oval-12" fill-opacity="0.8" fill="#000000" cx="1.24886878" cy="1.248" rx="1.24886878" ry="1.248"></ellipse>
                                <ellipse id="Oval-12" fill-opacity="0.8" fill="#000000" cx="14.5701357" cy="1.248" rx="1.24886878" ry="1.248"></ellipse>
                                <polyline id="Path-16" stroke-opacity="0.8" stroke="#000000" stroke-width="2" stroke-linecap="round" stroke-linejoin="round" points="6.66063348 0.832 6.66063348 5.7271056 10.7029483 5.7271056"></polyline>
                                <path d="M2.49773756,8.32 C2.49773756,12.833578 12.9328918,12.8960667 12.9328918,8.32" id="Path-17" stroke-opacity="0.8" stroke="#000000" stroke-width="2" stroke-linecap="round" stroke-linejoin="round"></path>
                            </g>
                        </g>
                        <path d="M42.4615385,85.28 L42.4615385,57.824" id="Line" stroke-opacity="0.8" stroke="#000000" stroke-width="2" stroke-linecap="round" stroke-linejoin="round"></path>
                        <g id="Group-28" transform="translate(5.828054, 37.440000)">
                            <g id="Group-26">
                                <ellipse id="Oval-12" fill-opacity="0.8" fill="#000000" cx="1.24886878" cy="1.248" rx="1.24886878" ry="1.248"></ellipse>
                                <ellipse id="Oval-12" fill-opacity="0.8" fill="#000000" cx="14.5701357" cy="1.248" rx="1.24886878" ry="1.248"></ellipse>
                                <polyline id="Path-16" stroke-opacity="0.8" stroke="#000000" stroke-width="2" stroke-linecap="round" stroke-linejoin="round" points="6.66063348 0.832 6.66063348 5.7271056 10.7029483 5.7271056"></polyline>
                                <path d="M2.49773756,8.32 C2.49773756,12.833578 12.9328918,12.8960667 12.9328918,8.32" id="Path-17" stroke-opacity="0.8" stroke="#000000" stroke-width="2" stroke-linecap="round" stroke-linejoin="round"></path>
                            </g>
                        </g>
                        <path d="M26.6425339,56.992 L26.6425339,29.536" id="Line" stroke-opacity="0.8" stroke="#000000" stroke-width="2" stroke-linecap="round" stroke-linejoin="round"></path>
                        <path d="M64.9411765,56.992 L64.9411765,29.536" id="Line" stroke-opacity="0.8" stroke="#000000" stroke-width="2" stroke-linecap="round" stroke-linejoin="round"></path>
                        <path d="M101.574661,56.992 L101.574661,29.536" id="Line" stroke-opacity="0.8" stroke="#000000" stroke-width="2" stroke-linecap="round" stroke-linejoin="round"></path>
                        <path d="M85.7556561,85.28 L85.7556561,57.824" id="Line" stroke-opacity="0.8" stroke="#000000" stroke-width="2" stroke-linecap="round" stroke-linejoin="round"></path>
                        <path d="M0.416289593,57.408 L129.949263,57.408" id="Line" stroke-opacity="0.8" stroke="#000000" stroke-width="2" stroke-linecap="round" stroke-linejoin="round"></path>
                        <path d="M0.416289593,29.12 L129.949263,29.12" id="Line" stroke-opacity="0.8" stroke="#000000" stroke-width="2" stroke-linecap="round" stroke-linejoin="round"></path>
                        <path d="M42.4615385,28.704 L42.4615385,1.248" id="Line" stroke-opacity="0.8" stroke="#000000" stroke-width="2" stroke-linecap="round" stroke-linejoin="round"></path>
                        <path d="M85.7556561,28.704 L85.7556561,1.248" id="Line" stroke="#060606" stroke-width="2" stroke-linecap="round" stroke-linejoin="round"></path>
                    </g>
                    <path d="M43.0179255,16.8462779 L59.4077873,0.467817667" id="Path-67" stroke-opacity="0.8" stroke="#000000" stroke-width="2" stroke-linecap="round" stroke-linejoin="round"></path>
                    <path d="M85.7556561,17.2104602 L102.145518,0.832" id="Path-67" stroke-opacity="0.8" stroke="#000000" stroke-width="2" stroke-linecap="round" stroke-linejoin="round"></path>
                    <path d="M130,74.3784602 L144.929602,59.2658196" id="Path-67" stroke-opacity="0.8" stroke="#000000" stroke-width="2" stroke-linecap="round" stroke-linejoin="round"></path>
                    <path d="M85.7556561,17.2104602 L102.145518,0.832" id="Path-67" stroke-opacity="0.8" stroke="#000000" stroke-width="2" stroke-linecap="round" stroke-linejoin="round"></path>
                    <path d="M130,45.3784602 L144.631868,30.3664672" id="Path-67" stroke-opacity="0.8" stroke="#000000" stroke-width="2" stroke-linecap="round" stroke-linejoin="round"></path>
                </g>
                <path d="M154.578588,94.590996 C153.782841,78.9707878 150.428364,63.2218755 156.894945,48.2122992 C164.10754,31.4711508 167.731394,48.3309747 165.902567,54.189492 C163.989133,60.3190404 159.11831,65.4553351 158.075012,71.7912742 C156.060401,84.0259944 165.30125,52.5532515 169.419421,57.6586765 C172.194156,61.0986022 166.576104,69.8869974 164.874264,71.9965456 C163.682994,73.4732059 158.660433,75.960223 160.537297,75.6826757 C165.722966,74.9158279 181.044897,65.5994592 167.270394,81.4186017 C163.656439,85.5690006 159.327395,89.0379659 155.355895,92.8476481 L154.578588,94.590996 Z" id="Path-88" fill="#00C194"></path>
                <path d="M5.42106541,107.532207 C4.86558357,96.6283182 2.52394736,85.6345853 7.03802835,75.1569556 C12.072874,63.4705795 14.6025524,75.2397986 13.3259158,79.3294127 C11.9902184,83.6082236 8.5900773,87.1936809 7.86178982,91.6165654 C6.45546417,100.157171 12.9061587,78.1872138 15.7809015,81.751122 C17.7178415,84.1524069 13.8503447,90.6600665 12.6080956,91.7598578 C10.6523825,93.491295 8.27045052,94.5267543 9.5806194,94.3330088 C13.2005432,93.7977008 23.896216,87.2942885 14.2807456,98.3370464 C11.7579769,101.234286 8.73603186,103.655843 5.96367498,106.315241 L5.42106541,107.532207 Z" id="Path-88" fill="#00C194" transform="translate(11.254959, 88.827262) scale(-1, 1) rotate(14.000000) translate(-11.254959, -88.827262) "></path>
            </g>
        </g>
    </g>
</svg>