<?xml version="1.0" encoding="UTF-8"?>
<svg width="700px" height="476px" viewBox="0 0 700 476" version="1.1" xmlns="http://www.w3.org/2000/svg" xmlns:xlink="http://www.w3.org/1999/xlink">
    <!-- Generator: Sketch 44.1 (41455) - http://www.bohemiancoding.com/sketch -->
    <title>hero-2</title>
    <desc>Created with Sketch.</desc>
    <defs>
        <path d="M140.592402,244.875958 C98.3227257,326.50165 -12.6755301,361.351809 1.60956601,422.082668 C15.8946621,482.813527 30.8805727,480.887249 173.06432,455.197117 C315.248066,429.506985 329.465961,419.461814 444.807552,442.622294 C560.149142,465.782774 613.319844,497.65256 659.866409,455.197117 C706.412974,412.741674 710.752264,341.767403 679.801222,302.02738 C648.850181,262.287356 594.874572,149.938153 610.070932,93.2984164 C625.267292,36.6586798 561.205919,11.8551284 507.488006,0.59409501 C454.872911,-10.4357515 325.842641,135.702495 262.316376,141.290856 C198.790112,146.879217 182.862078,163.250266 140.592402,244.875958 Z" id="path-1"></path>
        <rect id="path-3" x="-11" y="363" width="846" height="222"></rect>
        <polygon id="path-4" points="1.46323215 78.7434744 119.223025 0.621331752 119.223025 293.5799 0.402734815 293.5799"></polygon>
        <rect id="path-6" x="0" y="0" width="19" height="31"></rect>
    </defs>
    <g id="Classy" stroke="none" stroke-width="1" fill="none" fill-rule="evenodd">
        <g id="Artboard-7" transform="translate(-1492.000000, -240.000000)">
            <g id="hero-2" transform="translate(1492.000000, 240.000000)">
                <g id="Group-15">
                    <mask id="mask-2" fill="white">
                        <use xlink:href="#path-1"></use>
                    </mask>
                    <use id="Path-69" fill="#FFF2E6" xlink:href="#path-1"></use>
                    <g id="Rectangle-46" mask="url(#mask-2)">
                        <use fill="#381A3D" fill-rule="evenodd" xlink:href="#path-3"></use>
                        <rect stroke="#979797" stroke-width="1" x="-10.5" y="363.5" width="845" height="221"></rect>
                    </g>
                </g>
                <g id="logo_no_outline" transform="translate(90.000000, 93.000000)">
                    <g id="Group" transform="translate(349.000000, 0.000000)">
                        <mask id="mask-5" fill="white">
                            <use xlink:href="#path-4"></use>
                        </mask>
                        <use id="Combined-Shape" fill="#26B07C" xlink:href="#path-4"></use>
                    </g>
                    <g id="Group-3" transform="translate(105.000000, 132.000000)">
                        <path d="M25,79.4569134 L25,26.5443536" id="Path-10" stroke="#00B188" stroke-width="2"></path>
                        <path d="M2.22311698,22.1136294 C4.13884241,17.5980884 8.61324025,14.4308552 13.827385,14.4308552 C19.0415298,14.4308552 23.5159277,17.5980884 25.4316531,22.1136294 C23.5159277,26.6291703 19.0415298,29.7964035 13.827385,29.7964035 C8.61324025,29.7964035 4.13884241,26.6291703 2.22311698,22.1136294 Z" id="Combined-Shape" fill="#00C194" transform="translate(13.827385, 22.113629) rotate(27.000000) translate(-13.827385, -22.113629) "></path>
                        <path d="M20.5217074,16.9103254 C22.8970956,11.311317 28.4450889,7.38413192 34.9103254,7.38413192 C41.375562,7.38413192 46.9235553,11.311317 49.2989435,16.9103254 C46.9235553,22.5093338 41.375562,26.436519 34.9103254,26.436519 C28.4450889,26.436519 22.8970956,22.5093338 20.5217074,16.9103254 Z" id="Combined-Shape" fill="#00C194" transform="translate(34.910325, 16.910325) rotate(-225.000000) translate(-34.910325, -16.910325) "></path>
                    </g>
                    <g id="Group-2" transform="translate(183.000000, 83.000000)">
                        <polygon id="Path-4" fill="#F1A5C9" points="0 90.0566755 43.8016838 61.1449245 43.8016838 128.806226 92.1819602 96.2083145 92.1819602 28.3520642 135.904824 0 135.904824 211 92.1819602 211 92.1819602 150.328852 43.8016838 182.358475 43.8016838 210.728808 0 210.728808"></polygon>
                        <polyline id="Path-5" stroke="#381A3D" stroke-width="2" stroke-linecap="square" points="20 91 20 163.180783 20 191"></polyline>
                        <path d="M117,28 L117,194" id="Path-6" stroke="#381A3D" stroke-width="2"></path>
                        <path d="M117.275336,108.688232 L20.279601,168.85701" id="Path-7" stroke="#381A3D" stroke-width="2"></path>
                    </g>
                    <polygon id="Path-8" fill="#B1523F" points="106.631269 224.473614 155.90864 192 155.90864 293 106.631269 293"></polygon>
                    <g id="Group-8" transform="translate(301.000000, 98.000000)">
                        <mask id="mask-7" fill="white">
                            <use xlink:href="#path-6"></use>
                        </mask>
                        <g id="Rectangle"></g>
                        <polygon id="Rectangle-5" fill="#381A3D" mask="url(#mask-7)" transform="translate(5.086804, 14.835730) rotate(36.000000) translate(-5.086804, -14.835730) " points="0.825589793 -5.3505592 9.82558979 -5.3505592 9.12404955 35.0220192 0.348018611 22.2488375"></polygon>
                    </g>
                    <circle id="Oval-2" fill="#EE4D2A" cx="325" cy="90" r="18"></circle>
                    <path d="M314.274534,108.26218 C310.887244,105.039041 308.780941,100.51872 308.780941,95.5139489 C308.780941,85.7244389 316.839816,77.788473 326.780941,77.788473 C334.046353,77.788473 340.306393,82.0273344 343.149905,88.1306748 C340.159309,86.1552447 336.575548,85.0052454 332.723189,85.0052454 C322.261674,85.0052454 313.780941,93.4859789 313.780941,103.947494 C313.780941,105.431784 313.95166,106.876201 314.274534,108.26218 Z" id="Combined-Shape" fill="#B80000" style="mix-blend-mode: darken;" transform="translate(325.965423, 93.025327) rotate(182.000000) translate(-325.965423, -93.025327) "></path>
                    <polygon id="Path-9" fill="#EE4D2A" points="0 292.907633 79.7689634 292.907633 79.7689634 240"></polygon>
                    <g id="Group-53" transform="translate(325.000000, 91.000000)" stroke-opacity="0.8" stroke="#000000" stroke-width="2" stroke-linecap="square">
                        <path d="M6.5,13.5 L0.977319491,7.97731949" id="Line"></path>
                        <path d="M10.5,10.5 L4.97731949,4.97731949" id="Line"></path>
                        <path d="M13.5,6.5 L7.97731949,0.977319491" id="Line"></path>
                    </g>
                    <polygon id="Path-12" fill="#B15240" points="99 225.843142 164.769283 185 164.769283 210.319167 99 250.338803"></polygon>
                    <g id="Group-14" transform="translate(151.049038, 247.477241) rotate(-30.000000) translate(-151.049038, -247.477241) translate(144.549038, 243.977241)" stroke="#000000" stroke-opacity="0.8" stroke-width="2" stroke-linecap="round" stroke-linejoin="round">
                        <path d="M0.5,6 L9.55538514,6" id="Line"></path>
                        <path d="M3.5,1 L12.5553851,1" id="Line"></path>
                    </g>
                    <path d="M136.5,153.5 L143.5,157.5" id="Line" stroke="#060606" stroke-linecap="round" stroke-linejoin="round"></path>
                    <path d="M132.5,156.5 L139.5,159.5" id="Line" stroke="#060606" stroke-linecap="round" stroke-linejoin="round"></path>
                    <path d="M144.5,144.5 L150.5,147.5" id="Line" stroke="#060606" stroke-linecap="round" stroke-linejoin="round"></path>
                    <path d="M140.5,149.5 L147.5,153.5" id="Line" stroke="#060606" stroke-linecap="round" stroke-linejoin="round"></path>
                    <path d="M106.5,246.5 L155.5,216.5" id="Line" stroke-opacity="0.8" stroke="#000000" stroke-width="2" stroke-linecap="round" stroke-linejoin="round"></path>
                    <path d="M129.5,158.5 L109,150" id="Line" stroke="#060606" stroke-width="2" stroke-linecap="round" stroke-linejoin="round"></path>
                    <g id="lines" transform="translate(116.748759, 156.798114) scale(1, -1) rotate(-47.000000) translate(-116.748759, -156.798114) translate(109.748759, 151.798114)" stroke="#060606" stroke-linecap="round" stroke-linejoin="round">
                        <path d="M12.5,9.5 L11.6330854,3.0740983" id="Line"></path>
                        <path d="M7.5,7.5 L6.76038624,0.781326508" id="Line"></path>
                        <path d="M2.5,6.5 L1.78897635,1.31525884" id="Line"></path>
                    </g>
                    <g id="lines" transform="translate(136.856969, 146.598239) rotate(213.000000) translate(-136.856969, -146.598239) translate(131.356969, 136.098239)" stroke="#060606" stroke-linecap="round" stroke-linejoin="round">
                        <path d="M0.5,16.5 L5.17797284,20.3651697" id="Line"></path>
                        <path d="M3.5,5.5 L10.2968443,9.88675591" id="Line"></path>
                        <path d="M4.30581493,0.661379667 L10.2968443,4.88675591" id="Line"></path>
                        <path d="M1.5,10.5 L9.12071818,15.4199943" id="Line"></path>
                    </g>
                    <g id="lines" transform="translate(113.000000, 146.000000)" stroke="#060606" stroke-linecap="round" stroke-linejoin="round">
                        <path d="M11.5,9.5 L10.5,2.5" id="Line"></path>
                        <path d="M6.5,7.5 L5.5,0.5" id="Line"></path>
                        <path d="M1.5,6.5 L0.5,0.5" id="Line"></path>
                    </g>
                    <path d="M130.5,158.5 L149.5,139.5" id="Line" stroke="#060606" stroke-width="2" stroke-linecap="round" stroke-linejoin="round"></path>
                </g>
                <g id="Group-7" transform="translate(434.000000, 377.000000)">
                    <rect id="Rectangle-60" fill="#B15240" x="0" y="2" width="130" height="8"></rect>
                    <path d="M6,1.5 L125,1.5" id="Line" stroke="#060606" stroke-width="2" stroke-linecap="round" stroke-linejoin="round"></path>
                </g>
                <g id="girl-drawing" transform="translate(547.500000, 342.500000) scale(-1, 1) translate(-547.500000, -342.500000) translate(519.000000, 278.000000)">
                    <polygon id="Path-103" fill="#965234" points="41.6996831 56.7964498 48.0074716 95.0416031 44.7304628 120.252883 39.6008072 121.171172 41.3069722 94.6366389 33.8726684 58.3197543"></polygon>
                    <polygon id="Path-103" fill="#965234" transform="translate(22.968522, 89.739555) rotate(7.000000) translate(-22.968522, -89.739555) " points="23.7281353 57.5521942 30.0359237 95.7973475 26.758915 121.008627 21.6292593 121.926916 23.3354243 95.3923833 15.9011205 59.0754987"></polygon>
                    <path d="M31.4583326,119.261407 L31.4583326,128.890164 L17.3235294,128.890164 C17.4409624,125.055096 19.0398595,123.137563 22.1202205,123.137563 C26.740762,123.137563 23.9108916,119.261407 25.0222959,119.261407 C25.7632322,119.261407 26.7963495,119.261407 28.1216478,119.261407 L31.4583326,119.261407 Z" id="Path-53" fill="#FDDAB2" transform="translate(24.390931, 124.075785) scale(-1, 1) translate(-24.390931, -124.075785) "></path>
                    <path d="M53.2524502,119.261407 L53.2524502,128.890164 L39.1176471,128.890164 C39.2350801,125.055096 40.8339771,123.137563 43.9143381,123.137563 C48.5348796,123.137563 46.2938593,119.261407 47.4052637,119.261407 C48.1461999,119.261407 48.9830338,119.261407 49.9157655,119.261407 L53.2524502,119.261407 Z" id="Path-53" fill="#FDDAB2" transform="translate(46.185049, 124.075785) scale(-1, 1) translate(-46.185049, -124.075785) "></path>
                    <path d="M45.5441176,50.461227 L45.5441176,41.4051409 C45.5441176,34.4609723 39.9147568,28.8316115 32.9705882,28.8316115 C26.0264197,28.8316115 20.3970588,34.4609723 20.3970588,41.4051409 L20.3970588,41.4051409 L20.3970588,50.5552976 C15.0751984,72.4271592 12.4142681,84.7366571 12.4142681,87.4837913 C12.4142681,88.1995917 24.9164789,88.4815576 49.9209004,88.3296892 C47.5261454,69.77176 46.0672178,57.1489393 45.5441176,50.461227 Z" id="Combined-Shape" fill="#EE4D2A"></path>
                    <path d="M8.5441374,65.5883768 C13.8983499,59.7296377 16.2892535,53.6506283 15.7168482,47.3513488 C14.8582402,37.9024295 15.6604784,33.5239286 16.9040508,35.3466225 C18.1476231,37.1693165 20.1274398,47.3875 19.7211649,52.4587591 C19.31489,57.5300183 14.3076037,69.8264765 11.9098257,72.659723 C10.3113071,74.5485541 9.18941098,72.1914386 8.5441374,65.5883768 Z" id="Path-101" fill="#965234" transform="translate(14.159646, 54.115536) rotate(-177.000000) translate(-14.159646, -54.115536) "></path>
                    <path d="M31.0147059,24.6579286 L35.1474008,24.6579286 L35.1474008,27.8782461 L35.1474008,27.8782461 C35.1474008,29.0194583 34.2222655,29.9445936 33.0810534,29.9445936 L33.0810534,29.9445936 L33.0810534,29.9445936 C31.9398412,29.9445936 31.0147059,29.0194583 31.0147059,27.8782461 L31.0147059,24.6579286 Z" id="Rectangle-18" fill="#965234"></path>
                    <path d="M37.2510752,12.2956749 C33.7605742,10.4685914 28.6377682,11.5026859 27.1547427,12.6776739 C25.6717172,13.8526619 23.570479,15.6057646 23.6207123,18.1200229 C23.6709457,20.6342813 22.0440701,23.6357021 19.7373319,24.2087007 C17.4305936,24.7816992 12.8348129,25.8339018 12.2628377,27.9314857 C11.6908625,30.0290695 11.0914873,34.2020677 8.44909896,35.199699 C5.80671058,36.1973304 -0.695083242,38.216468 0.0607003421,41.7215364 C0.816483926,45.2266047 7.03755567,46.7098388 13.2107236,44.5707723 C19.3838916,42.4317058 23.0767389,49.4717378 27.1547427,43.5025172 C31.2327465,37.5332966 28.7711258,34.1063619 30.2243383,30.3113025 C31.6775509,26.5162431 33.2370718,28.39285 35.5329245,26.8674373 C37.8287771,25.3420247 40.241672,23.4293545 41.3930432,20.1306338 C42.5444144,16.8319132 40.7415762,14.1227584 37.2510752,12.2956749 Z" id="Path-100" fill="#060606"></path>
                    <path d="M43.6142597,31.8555256 C48.9684723,25.9967865 51.3593759,19.9177772 50.7869705,13.6184976 C49.9283625,4.16957833 50.7306007,-0.208922578 51.9741731,1.61377135 C53.2177454,3.43646528 55.1975621,13.6546488 54.7912872,18.725908 C54.3850123,23.7971671 49.377726,36.0936253 46.9799481,38.9268718 C45.3814294,40.8157029 44.2595333,38.4585875 43.6142597,31.8555256 Z" id="Path-101" fill="#965234" transform="translate(49.229768, 20.382684) rotate(6.000000) translate(-49.229768, -20.382684) "></path>
                    <rect id="Rectangle-63" fill="#965234" transform="translate(52.100514, 6.410014) rotate(-16.000000) translate(-52.100514, -6.410014) " x="51.5416907" y="3.84348092" width="1.11764706" height="5.13306531" rx="0.558823529"></rect>
                </g>
                <g id="girl-drawing" transform="translate(157.000000, 276.000000)">
                    <polygon id="Path-103" fill="#FABFC1" points="38.5104338 60.6224133 44.6590495 97.9003807 41.4647338 122.474089 36.4645215 123.369156 38.1276326 97.5056577 30.8809284 62.1071947"></polygon>
                    <path d="M29.7192782,31.6211438 C34.9383808,25.9105669 37.2689516,19.9852903 36.7109905,13.845314 C35.8740489,4.63534943 36.6560432,0.367576905 37.8682349,2.14417653 C39.0804265,3.92077615 41.0102838,13.880551 40.614261,18.8235625 C40.2182382,23.7665739 35.3373074,35.7520657 33.0000357,38.5136619 C31.4418546,40.3547261 30.3482688,38.0572201 29.7192782,31.6211438 Z" id="Path-101" fill="#FABFC1" transform="translate(35.193083, 20.438440) rotate(-347.000000) translate(-35.193083, -20.438440) "></path>
                    <polygon id="Path-103" fill="#FABFC1" transform="translate(21.025589, 91.402964) rotate(7.000000) translate(-21.025589, -91.402964) " points="22.3714523 58.6160233 27.3092314 98.7211299 24.1149158 123.294839 19.1147034 124.189905 20.7778146 98.3264069 14.741947 60.1008048"></polygon>
                    <path d="M28.5275167,121.507687 L28.5275167,130.892941 L14.7493956,130.892941 C14.8638653,127.15486 16.4224153,125.285819 19.4250455,125.285819 C23.9289908,125.285819 21.1705302,121.507687 22.253889,121.507687 C22.9761282,121.507687 23.9831755,121.507687 25.2750309,121.507687 L28.5275167,121.507687 Z" id="Path-53" fill="#00084B" transform="translate(21.638456, 126.200314) scale(-1, 1) translate(-21.638456, -126.200314) "></path>
                    <path d="M49.7716746,121.507687 L49.7716746,130.892941 L35.9935536,130.892941 C36.1080233,127.15486 37.6665732,125.285819 40.6692034,125.285819 C45.1731487,125.285819 42.988679,121.507687 44.0720378,121.507687 C44.794277,121.507687 45.609994,121.507687 46.5191888,121.507687 L49.7716746,121.507687 Z" id="Path-53" fill="#00084B" transform="translate(42.882614, 126.200314) scale(-1, 1) translate(-42.882614, -126.200314) "></path>
                    <path d="M30.0016116,33.3647808 L30.0016116,33.3647808 L30.0016116,33.3647808 C36.7705488,33.3647808 42.2578566,38.8520885 42.2578566,45.6210257 L42.2578566,60.7556266 L17.7453666,60.7556266 L17.7453666,45.6210257 L17.7453666,45.6210257 C17.7453666,38.8520885 23.2326744,33.3647808 30.0016116,33.3647808 Z" id="Combined-Shape" fill="#EE4D2A"></path>
                    <path d="M28.0950846,29.2966466 L32.1234938,29.2966466 L32.1234938,32.4354119 L32.1234938,32.4354119 C32.1234938,33.5478264 31.2217037,34.4496165 30.1092892,34.4496165 L30.1092892,34.4496165 L30.1092892,34.4496165 C28.9968747,34.4496165 28.0950846,33.5478264 28.0950846,32.4354119 L28.0950846,29.2966466 Z" id="Rectangle-18" fill="#F4B9D2"></path>
                    <path d="M34.1740834,17.2470233 C30.7716628,15.4661451 25.7781273,16.4740883 24.3325249,17.6193619 C22.8869226,18.7646355 20.8387077,20.4734037 20.8876734,22.9240788 C20.9366392,25.3747538 19.357586,27.3522395 17.1090567,27.9107474 C14.8605274,28.4692553 9.4706106,30.5816277 8.91306882,32.6261655 C8.35552703,34.6707034 8.67461491,38.5994229 6.0989054,39.5718251 C3.5231959,40.5442272 -0.107543212,44.2482441 0.629168688,47.6646724 C1.36588059,51.0811007 3.7990148,53.6172546 9.81640707,51.5322831 C15.8337993,49.4473117 21.0204219,55.0308905 24.9955201,49.2126261 C28.9706182,43.3943618 25.9081197,38.5061375 27.3246614,34.8070517 C28.7412032,31.107966 30.2613706,32.9371152 32.499289,31.4502788 C34.7372074,29.9634425 37.0892145,28.099142 38.2115317,24.8838431 C39.3338488,21.6685442 37.576504,19.0279015 34.1740834,17.2470233 Z" id="Path-100" fill="#965234"></path>
                    <path d="M38.9700444,36.2381429 C44.189147,30.5275661 46.5197178,24.6022895 45.9617567,18.4623131 C45.1248151,9.25234859 45.9068094,4.98457606 47.119001,6.76117569 C48.3311926,8.53777531 50.26105,18.4975501 49.8650272,23.4405616 C49.4690044,28.3835731 44.5880735,40.3690648 42.2508018,43.1306611 C40.6926207,44.9717253 39.5990349,42.6742192 38.9700444,36.2381429 Z" id="Path-101" fill="#FABFC1" transform="translate(44.443850, 25.055440) rotate(6.000000) translate(-44.443850, -25.055440) "></path>
                    <rect id="Rectangle-63" fill="#F4B9D2" transform="translate(46.804093, 11.368662) rotate(-16.000000) translate(-46.804093, -11.368662) " x="46.2593706" y="8.86703435" width="1.089444" height="5.00325466" rx="0.544721998"></rect>
                    <path d="M18.0471074,60.7746266 C15.2983288,77.2078856 15.612225,88.5084865 18.988796,94.6764294 C20.662421,97.7336206 14.0605821,113.380239 16.5250311,115.360521 C17.0770232,115.804068 19.3788067,116.316064 23.4303816,116.896509 L27.840669,96.0393792 L28.915434,74.7573595 C29.6198718,83.2924465 31.6208716,90.1475216 34.9184336,95.3225848 C36.711211,98.1360987 33.049868,110.488154 36.7578836,117.887098 C36.8992417,118.169163 39.1648312,118.324341 43.5546519,118.352631 L45.7564044,97.4444463 L42.1581154,60.0274234 L18.0471074,60.7746266 Z" id="Path-119" fill="#26B07C"></path>
                </g>
                <g id="board" transform="translate(450.000000, 180.000000)" stroke="#FFFFFF" stroke-width="2">
                    <polygon id="Path-99" stroke-linecap="round" stroke-linejoin="round" points="5.22598119 41.6422573 40.9382078 40.6941451 41.302946 58.1653144 4.60426827 56.4690743"></polygon>
                    <polygon id="Path-99" stroke-linecap="round" stroke-linejoin="round" points="37.6217129 77 72.586661 77 73.726468 93.2169232 37 91.8268171"></polygon>
                    <circle id="Oval-36" cx="16" cy="121" r="9"></circle>
                    <path d="M0,146.013141 L32.7627697,145.818051 L32.6836334,144.995401 L32.6836334,144.995401 C32.002563,137.915437 26.1210318,132.471351 19.0096271,132.338414 L14.2757569,132.249922 L14.2757569,132.249922 C6.79481987,132.110077 0.526190188,137.877265 0.0432827181,145.34391 L0,146.013141 Z" id="Path-104" stroke-linecap="round" stroke-linejoin="round"></path>
                    <g id="Group-22" transform="translate(36.000000, 49.000000)" stroke-linecap="round" stroke-linejoin="round">
                        <path d="M0.431825255,0.263421535 C12.5914779,0.796766521 17.4751633,11.0236257 19.5764386,21.8824523" id="Path-97"></path>
                        <polyline id="Path-98" points="12.8598666 18.1511386 19.6914555 22.2627334 24.5522144 16.2549141"></polyline>
                    </g>
                    <g id="Group-22" transform="translate(28.500000, 96.500000) scale(-1, 1) translate(-28.500000, -96.500000) translate(16.000000, 85.000000)" stroke-linecap="round" stroke-linejoin="round">
                        <path d="M0.431825255,0.263421535 C12.5914779,0.796766521 17.4751633,11.0236257 19.5764386,21.8824523" id="Path-97"></path>
                        <polyline id="Path-98" points="12.8598666 18.1511386 19.6914555 22.2627334 24.5522144 16.2549141"></polyline>
                    </g>
                    <g id="Group-33" transform="translate(77.000000, 42.000000) rotate(6.000000) translate(-77.000000, -42.000000) translate(61.000000, 36.000000)" stroke-linecap="round" stroke-linejoin="round">
                        <path d="M0.5,1 L31.5161248,1" id="Line"></path>
                        <path d="M0.5,6 L31.5161248,6" id="Line"></path>
                        <path d="M0.5,11 L27.0188612,11" id="Line"></path>
                    </g>
                    <g id="Group-35" transform="translate(72.500000, 10.000000) rotate(-3.000000) translate(-72.500000, -10.000000) translate(48.000000, 2.000000)">
                        <path d="M-4.54747351e-13,5.04978598 C2.17883761,2.83849525 2.41653795,0.00486982898 4.82145235,0.170979442 C7.22636674,0.337089055 6.7087201,5.66913448 9.08046359,5.67698182 C11.4522071,5.68482916 12.403325,0.377313051 14.327447,0.20243174 C16.251569,0.0275504299 14.8374791,4.91609994 17.406072,4.92027652 C19.9746649,4.92445309 21.6336494,0.111063225 24.5679454,0.219082957 C27.5022414,0.32710269 25.8477197,5.39243546 28.7140984,5.33655694 C31.5804771,5.28067842 32.7477453,-0.0735732986 35.7668138,0.000767002914 C38.7858824,0.0751073044 38.0094072,5.33051208 40.5105605,5.62702817 C43.0117138,5.92354425 44.8969561,1.73169543 47.3153578,1.36986706" id="Path-96"></path>
                        <path d="M-4.54747351e-13,15.4475906 C2.25641415,13.5 2.50257771,11.0042891 4.99311801,11.1505899 C7.48365831,11.2968906 6.94758109,15.9930808 9.40376945,15.9999923 C11.8599578,16.0069039 12.8449399,11.3323178 14.8375694,11.1782914 C16.8301989,11.024265 15.365761,15.3298469 18.0258075,15.3335254 C20.6858539,15.3372039 22.4039058,11.0978188 25.4426762,11.192957 C28.4814465,11.2880952 26.7680162,15.7493786 29.7364511,15.7001637 C32.7048859,15.6509488 33.9137141,10.9352004 37.0402753,11.0006755 C40.1668364,11.0661506 39.3627152,15.6948397 41.9529209,15.9559957 C44.5431267,16.2171518 46.4954922,12.5251879 49,12.2065081" id="Path-96"></path>
                    </g>
                </g>
            </g>
        </g>
    </g>
</svg>