<?xml version="1.0" encoding="UTF-8"?>
<svg width="256px" height="142px" viewBox="0 0 256 142" version="1.1" xmlns="http://www.w3.org/2000/svg" xmlns:xlink="http://www.w3.org/1999/xlink" style="background: #FFFFFF;">
    <!-- Generator: Sketch 44.1 (41455) - http://www.bohemiancoding.com/sketch -->
    <title>process-launching</title>
    <desc>Created with Sketch.</desc>
    <defs>
        <path d="M23.1246336,18.0035273 L13.968254,18.0035273 L13.968254,18.0035273 C6.25380032,18.0035273 -9.44748097e-16,24.2573277 0,31.9717813 C9.44748097e-16,39.686235 6.25380032,45.9400353 13.968254,45.9400353 L98.031746,45.9400353 C105.7462,45.9400353 112,39.686235 112,31.9717813 L112,31.9717813 C112,24.2573277 105.7462,18.0035273 98.031746,18.0035273 L98.031746,18.0035273 L81.9083519,18.0035273 C76.940885,7.2379751 66.0733408,8.39621301e-15 53.7599781,1.0658141e-14 L53.7599781,0 L51.2728104,0 L51.2728104,1.0658141e-14 C38.9665661,1.29187614e-14 28.0946952,7.23173182 23.1246336,18.0035273 Z" id="path-1"></path>
    </defs>
    <g id="Classy" stroke="none" stroke-width="1" fill="none" fill-rule="evenodd">
        <g id="process-launching">
            <g id="launching" transform="translate(0.000000, 2.000000)">
                <g id="Group-8" transform="translate(35.000000, 16.000000)" stroke="#060606" stroke-width="2">
                    <path d="M0,117.303879 C30.2069093,118.497633 51.3669764,118.819857 63.4802012,118.270552 C94.8705119,116.847078 117.336121,112.002685 130.877027,103.737374" id="Path-72"></path>
                    <path d="M72.0857143,105.103448 C93.4490006,115.341538 110.187256,120.185931 122.300481,119.636626 C153.690792,118.213151 176.1564,113.368759 189.697307,105.103448" id="Path-72" transform="translate(130.891511, 112.391015) scale(-1, 1) translate(-130.891511, -112.391015) "></path>
                    <path d="M119.814295,109.069045 C123.739014,107.618065 127.457748,105.742955 130.914718,103.499425 C146.375125,93.4658193 156.6,76.0634946 156.6,56.2758621 C156.6,25.1955617 131.374444,0 100.257143,0 C69.1398421,0 43.9142857,25.1955617 43.9142857,56.2758621 C43.9142857,76.990058 55.1191473,95.09033 71.8053123,104.859926 C73.9256251,106.101349 76.1344435,107.208259 78.420024,108.168925" id="Oval-33"></path>
                </g>
                <g id="Group-6" transform="translate(92.135019, 92.433965) rotate(-2.000000) translate(-92.135019, -92.433965) translate(36.135019, 58.933965)">
                    <g id="Group-5" transform="translate(0.000000, 14.899471)">
                        <mask id="mask-2" fill="white">
                            <use xlink:href="#path-1"></use>
                        </mask>
                        <use id="Combined-Shape" fill="#23CF8D" xlink:href="#path-1"></use>
                        <rect id="Rectangle" stroke="#060606" stroke-width="2" mask="url(#mask-2)" x="104.911111" y="16.5202822" width="9.82222222" height="9.79541446" rx="4.89770723"></rect>
                        <rect id="Rectangle" stroke="#060606" stroke-width="2" mask="url(#mask-2)" x="-2.11111111" y="16.5202822" width="9.82222222" height="9.79541446" rx="4.89770723"></rect>
                        <rect id="Rectangle" stroke="#060606" stroke-width="2" mask="url(#mask-2)" x="-2.73333333" y="32.6613757" width="8.57777778" height="8.55379189" rx="4.27689594"></rect>
                    </g>
                    <path d="M7.0007966,51.5273369 L111.377778,51.5273369" id="Line" stroke="#060606" stroke-width="2" stroke-linecap="round" stroke-linejoin="round"></path>
                    <path d="M60.4219831,19.655054 C56.760815,21.3126871 54.3224234,25.222772 53.1068082,31.3853089 C52.1479224,35.6479982 53.2853014,38.8133986 56.5189452,40.8815102 C61.369411,43.9836777 65.1156184,43.038934 66.5582439,45.785282 C68.0008694,48.5316299 68.2955131,48.7992435 70.9167346,49.1987915 C73.5379561,49.5983395 75.0467892,46.2561369 74.2751625,44.8951973 C73.5035359,43.5342577 72.6214604,41.8985968 68.6244317,40.5589148 C64.6274029,39.2192329 59.8522513,35.4565462 60.2721348,31.4592593 C60.5520571,28.7944014 62.4579184,26.9090953 65.9897187,25.803341 C65.9390629,20.0468499 64.0831511,17.9974209 60.4219831,19.655054 Z" id="Path-70" fill="#965234" transform="translate(63.627442, 34.165429) rotate(-22.000000) translate(-63.627442, -34.165429) "></path>
                    <g id="Group-26" transform="translate(32.355556, 9.932981)">
                        <ellipse id="Oval-11" fill="#965234" cx="35.0057807" cy="16.0249304" rx="11.2627294" ry="11.2879565"></ellipse>
                        <polyline id="Path-16" stroke-opacity="0.8" stroke="#000000" stroke-width="2" stroke-linecap="round" stroke-linejoin="round" points="35.3101787 13.2792113 35.3101787 16.8691112 37.7453635 16.8691112"></polyline>
                        <path d="M32.236534,18.9972174 C32.236534,22.3073183 39.9599266,22.3531453 39.9599266,18.9972174" id="Path-17" stroke-opacity="0.8" stroke="#000000" stroke-width="2" stroke-linecap="round" stroke-linejoin="round"></path>
                        <path d="M31.6574016,1.78385793 C39.2921519,0.193796053 45.0548438,0.717080852 47.3883593,9.3460548 C47.6646407,10.3676999 47.686931,13.1826949 46.9239834,13.9146327 C44.7265916,16.0227121 33.5033127,4.6869856 31.8727884,2.52633169 L31.6574016,1.78385793 Z" id="Path-18" fill="#060606"></path>
                        <g id="Group-24" transform="translate(3.043981, 7.787773)"></g>
                        <path d="M22.2004762,2.50108669 C29.8352265,0.911024815 35.5979184,1.43430961 37.9314339,10.0632836 C38.2077153,11.0849287 38.8923828,12.5006536 38.1294352,13.2325914 C35.9320434,15.3406708 24.0463873,5.40421436 22.415863,3.24356045 L22.2004762,2.50108669 Z" id="Path-18" fill="#060606" transform="translate(30.339538, 7.658763) scale(-1, 1) rotate(10.000000) translate(-30.339538, -7.658763) "></path>
                    </g>
                    <circle id="Oval-2" fill-opacity="0.8" fill="#000000" cx="73.0555556" cy="23.5" r="1.5"></circle>
                    <circle id="Oval-2" fill-opacity="0.8" fill="#000000" cx="63.5" cy="23.5" r="1.5"></circle>
                    <path d="M50.0379058,9.03238449 C50.3185821,14.8041675 43.180388,3.48237298 42.7821407,4.43725569 C41.9485245,6.43602849 47.4536766,16.3193393 42.3674742,19.7125536 C39.2994147,21.759382 32.2597066,20.2896698 29.3767791,24.0119237 C25.0497279,29.5987391 29.758634,29.9671015 28.3692358,36.2204129 C27.5165496,40.0581262 19.0863312,48.516159 31.7015106,49.9124 C37.8615296,50.5941875 46.0999151,44.6887848 46.5491148,38.158238 C46.6865524,36.1601439 44.9324203,34.0820694 45.6604443,32.2156382 C48.1044004,25.9500805 60.8141532,24.103235 54.7666809,15.2037148 C48.7192085,6.30419472 49.7572295,3.26060151 50.0379058,9.03238449 Z" id="Path-71" fill="#060606" transform="translate(40.602219, 27.172937) rotate(48.000000) translate(-40.602219, -27.172937) "></path>
                    <g id="Group-4" transform="translate(16.800000, 44.077601)">
                        <ellipse id="Oval-32" fill="#060606" cx="10.5777778" cy="10.5537919" rx="10.5777778" ry="10.5537919"></ellipse>
                        <ellipse id="Oval-32" fill="#FFFFFF" cx="10.5777778" cy="10.5537919" rx="4.97777778" ry="4.9664903"></ellipse>
                    </g>
                    <g id="Group-4" transform="translate(80.266667, 44.077601)">
                        <ellipse id="Oval-32" fill="#060606" cx="10.5777778" cy="10.5537919" rx="10.5777778" ry="10.5537919"></ellipse>
                        <ellipse id="Oval-32" fill="#FFFFFF" cx="10.5777778" cy="10.5537919" rx="4.97777778" ry="4.9664903"></ellipse>
                    </g>
                </g>
                <polyline id="Path-73" stroke="#060606" stroke-width="2" stroke-linecap="round" transform="translate(218.388045, 123.482411) rotate(-27.000000) translate(-218.388045, -123.482411) " points="210.824097 108.837793 225.951994 123.958199 211.676664 138.12703"></polyline>
                <polyline id="Path-73" stroke="#060606" stroke-width="2" stroke-linecap="round" transform="translate(136.193068, 15.734876) scale(-1, 1) translate(-136.193068, -15.734876) " points="128.193068 0.246015535 144.193068 16.2380924 129.094785 31.223737"></polyline>
                <path d="M8.5,90 L34.5192237,90" id="Line" stroke="#060606" stroke-width="2" stroke-linecap="round" stroke-linejoin="round"></path>
                <path d="M0.5,102 L26.5192237,102" id="Line" stroke="#060606" stroke-width="2" stroke-linecap="round" stroke-linejoin="round"></path>
                <path d="M0.5,115 L26.5192237,115" id="Line" stroke="#060606" stroke-width="2" stroke-linecap="round" stroke-linejoin="round"></path>
            </g>
        </g>
    </g>
</svg>