<?xml version="1.0" encoding="UTF-8"?>
<svg width="247px" height="142px" viewBox="0 0 247 142" version="1.1" xmlns="http://www.w3.org/2000/svg" xmlns:xlink="http://www.w3.org/1999/xlink" style="background: #FFFFFF;">
    <!-- Generator: Sketch 44.1 (41455) - http://www.bohemiancoding.com/sketch -->
    <title>process-user-stories</title>
    <desc>Created with Sketch.</desc>
    <defs></defs>
    <g id="Classy" stroke="none" stroke-width="1" fill="none" fill-rule="evenodd">
        <g id="process-user-stories">
            <g id="user-stories" transform="translate(0.000000, 14.000000)">
                <g id="Group-15" transform="translate(183.431816, 58.789947) rotate(14.000000) translate(-183.431816, -58.789947) translate(130.931816, 11.289947)">
                    <g id="Group-26" transform="translate(46.000000, 21.000000)">
                        <rect id="Rectangle-18" fill="#965234" x="17.3677519" y="51.1530414" width="18.0018605" height="18.0350365"></rect>
                        <ellipse id="Oval-11" fill="#965234" cx="28.6189147" cy="27.8577859" rx="27.7528682" ry="27.8040146"></ellipse>
                        <ellipse id="Oval-12" fill-opacity="0.8" fill="#000000" cx="19.6179845" cy="21.8461071" rx="2.25023256" ry="2.25437956"></ellipse>
                        <ellipse id="Oval-12" fill-opacity="0.8" fill="#000000" cx="43.6204651" cy="21.8461071" rx="2.25023256" ry="2.25437956"></ellipse>
                        <polyline id="Path-16" stroke-opacity="0.8" stroke="#000000" stroke-width="2" stroke-linecap="round" stroke-linejoin="round" points="29.3689922 21.0946472 29.3689922 29.937136 35.3696124 29.937136"></polyline>
                        <path d="M21.7951215,35.1789968 C21.7951215,43.3322965 40.8265914,43.4451757 40.8265914,35.1789968" id="Path-17" stroke-opacity="0.8" stroke="#000000" stroke-width="2" stroke-linecap="round" stroke-linejoin="round"></path>
                    </g>
                    <g id="Group-39" transform="translate(49.000000, 14.000000)" fill="#060606">
                        <path d="M6.21638861,6.00351027 C6.91742738,3.59370249 9.24128826,1.63194243 12,1.63194243 C13.2488826,1.63194243 14.4086461,2.03398912 15.3690727,2.697643 C16.4695516,1.26683898 18.1354542,0.249658938 20,0.249658938 C21.9288732,0.249658938 23.6451601,1.33823564 24.7427937,2.84718452 C25.7642937,1.14978496 27.7356668,0 30,0 C31.8468778,0 33.498859,0.764913407 34.5994915,1.96799228 C35.566,1.35745871 36.7374606,1 38,1 C40.5407768,1 42.7126944,2.44766815 43.5876703,4.49226224 C44.1752792,4.26504553 44.7659929,4.13717054 45.3357646,4.13717054 C48.4714001,4.13717054 49.8491808,8.01006016 49.9882048,11.0000147 C49.9921375,11.0000049 49.9960693,11 50,11 C53.3137085,11 56,13.4624339 56,16.5 C56,19.5375661 53.3137085,22.7331629 50,22.7331629 C46.8129359,22.7331629 42.9484523,20.7213054 42.6577193,17.8650909 C42.4046025,17.8170054 42.1594245,17.7485561 41.9227972,17.661791 C40.8709599,18.4956095 39.4997382,19 38,19 C35.3765576,19 33.1463671,17.4565981 32.331077,15.3063055 C31.2390517,16.3501453 29.7023159,17 28,17 C26.3368139,17 24.8316832,16.3796773 23.7449291,15.3776596 C23.1144657,17.640021 21.3419515,19.4635096 18.7259809,19.4635096 C16.9775137,19.4635096 15.2016053,18.6488948 13.9140066,17.4330963 C13.4305641,20.0262454 10.9667339,22 8,22 C4.6862915,22 2,19.5375661 2,16.5 C2,16.213074 2.02396853,15.9312796 2.07017035,15.6562075 C0.802013918,14.6477701 0,13.1597402 0,11.5 C0,8.46243388 2.6862915,6 6,6 C6.07243651,6 6.14457322,6.00117666 6.21638861,6.00351027 Z" id="Combined-Shape"></path>
                    </g>
                    <g id="Group-37">
                        <ellipse id="Oval-17" fill="#965234" transform="translate(33.500000, 47.500000) rotate(-13.000000) translate(-33.500000, -47.500000) " cx="33.5" cy="47.5" rx="24.5" ry="42.5"></ellipse>
                        <path d="M18.8163557,36.3436348 C19.2228945,34.6192168 19.5271428,27.0213622 23.1803171,25.6714332 C46.1779182,17.1733092 46.7879766,53.6842133 49.8536152,65.8857656" id="Path-32" stroke-opacity="0.8" stroke="#000000" stroke-width="2" stroke-linecap="round" stroke-linejoin="round"></path>
                        <path d="M45.3762528,43.6629914 C30.8298409,42.2696386 24.4247366,51.3930717 34.650953,64.1913156" id="Path-33" stroke-opacity="0.8" stroke="#000000" stroke-width="2" stroke-linecap="round" stroke-linejoin="round"></path>
                    </g>
                </g>
                <g id="Group-38" transform="translate(135.000000, 65.000000) rotate(-16.000000) translate(-135.000000, -65.000000) translate(108.000000, 45.000000)">
                    <path d="M4.84962359,25.442876 C7.2200556,33.8434074 14.9410906,40 24.1000749,40 L24.1000749,40 L34,40 C45.045695,40 54,31.045695 54,20 L54,20 C54,8.954305 45.045695,-5.58177493e-15 34,-3.55271368e-15 L34,0 L24.1000749,0 L24.1000749,0 C13.548836,1.93823114e-15 4.90593753,8.17057648 4.15328903,18.5298198 L0,28.2279295 L4.84962359,25.442876 Z" id="Combined-Shape" fill="#F1E2E8"></path>
                    <text id="!!!" font-family="SourceSansPro-Bold, Source Sans Pro" font-size="14" font-weight="bold" letter-spacing="1.39999998" fill-opacity="0.9" fill="#000000">
                        <tspan x="20" y="25">!!!</tspan>
                    </text>
                </g>
                <g id="Group-16" transform="translate(0.000000, 19.000000)">
                    <g id="Group-26" transform="translate(0.000000, 7.000000)">
                        <ellipse id="Oval-11" fill="#FABFC1" cx="79.1779716" cy="44.827369" rx="26.9492894" ry="27.0764601"></ellipse>
                        <ellipse id="Oval-12" fill-opacity="0.8" fill="#000000" cx="83.1850775" cy="40.1953887" rx="2.18507752" ry="2.19538866"></ellipse>
                        <ellipse id="Oval-12" fill-opacity="0.8" fill="#000000" cx="100.726744" cy="37.3580007" rx="2.18507752" ry="2.19538866"></ellipse>
                        <polyline id="Path-16" stroke-opacity="0.8" stroke="#000000" stroke-width="2" stroke-linecap="round" stroke-linejoin="round" transform="translate(94.928523, 41.912897) rotate(-15.000000) translate(-94.928523, -41.912897) " points="92.0150861 37.6073448 92.0150861 46.21845 97.8419595 46.21845"></polyline>
                        <path d="M57.5900249,32.8578745 C51.1374486,34.0645408 43.5552152,32.6198744 38.232296,36.4778732 C32.8693352,40.3648938 33.3556665,49.2986835 28.5742314,53.8882327 C19.6815816,62.4240075 -2.49811325,62.3350676 0.230966491,81.8962022 C4.49579297,112.465058 41.0873057,104.010455 47.3703643,80.1454138 C49.5113795,72.0131618 47.5381965,63.0459198 50.1991441,55.0701309 C57.7108181,32.5550216 59.7764381,41.7539608 59.6237882,35.544429 L57.5900249,32.8578745 Z" id="Path-19" fill="#E04A2D"></path>
                        <g id="Group-24" transform="translate(4.583333, 32.857875)" fill="#97240E">
                            <path d="M0.575306559,62.5021581 C12.1874577,75.7903413 37.046181,66.568209 42.1222912,47.2875393 C44.2633064,39.1552872 42.2901234,30.1880453 44.951071,22.2122564 C52.462745,-0.302852915 54.5283651,8.89608631 54.3757151,2.68655453 L52.3419518,0 C52.0415024,0.0561856378 51.7386038,0.106622961 51.4335982,0.152114941 C50.5523714,1.52009505 48.041174,-0.564542973 40.6376197,17.353296 C37.2900882,25.4548819 38.6901142,34.9246382 35.8719521,43.2267642 C30.6361513,58.6510994 13.2154669,66.7681311 0.575306559,62.5021581 Z" id="Combined-Shape"></path>
                        </g>
                        <path d="M56.9288273,13.0833637 C63.2944166,13.6971567 75.3177671,14.9988552 80.901368,35.6972046 C81.5624499,38.1478282 81.7695439,55.970875 79.9439744,57.7265766 C78.0581377,59.540239 67.527243,53.6324095 59.4562738,43.9396677 C55.3174779,38.9692261 48.8291552,27.333437 48.7386407,22.4852893 C48.6204223,16.153258 50.563238,12.4695707 56.9288273,13.0833637 Z" id="Path-18" fill="#E04A2D" transform="translate(65.055365, 35.534880) scale(-1, 1) rotate(10.000000) translate(-65.055365, -35.534880) "></path>
                        <path d="M64.038934,8.71192888 C82.3072495,4.89784199 96.0961318,6.15304703 101.679733,26.8513964 C102.340815,29.3020201 103.979077,32.6979243 102.153507,34.4536259 C96.8956212,39.5102832 68.4558022,15.6756712 64.5543081,10.4929032 L64.038934,8.71192888 Z" id="Path-18" fill="#E04A2D" transform="translate(83.513959, 21.083664) rotate(-24.000000) translate(-83.513959, -21.083664) "></path>
                        <ellipse id="Oval-16" fill="#30252A" transform="translate(96.050934, 54.117872) rotate(-22.000000) translate(-96.050934, -54.117872) " cx="96.0509336" cy="54.1178723" rx="6.34615385" ry="3.52112676"></ellipse>
                    </g>
                    <g id="Group-52" transform="translate(49.000000, 0.000000)" stroke-linecap="round" stroke-width="2" stroke="#060606" stroke-linejoin="round">
                        <polyline id="Path-51" points="3.20317773 18.0784844 4.31698839 13.2689653 0 13.6413877 2.09368752 7"></polyline>
                        <polyline id="Path-51" points="13.2031777 14.0784844 14.3169884 9.26896532 10 9.64138766 12.0936875 3"></polyline>
                        <polyline id="Path-51" points="25.2031777 11.0784844 26.3169884 6.26896532 22 6.64138766 24.0936875 0"></polyline>
                    </g>
                </g>
            </g>
        </g>
    </g>
</svg>