<?xml version="1.0" encoding="UTF-8"?>
<svg width="247px" height="142px" viewBox="0 0 247 142" version="1.1" xmlns="http://www.w3.org/2000/svg" xmlns:xlink="http://www.w3.org/1999/xlink" style="background: #FFFFFF;">
    <!-- Generator: Sketch 44.1 (41455) - http://www.bohemiancoding.com/sketch -->
    <title>process-building-team</title>
    <desc>Created with Sketch.</desc>
    <defs></defs>
    <g id="Classy" stroke="none" stroke-width="1" fill="none" fill-rule="evenodd">
        <g id="process-building-team">
            <g id="building-team" transform="translate(0.000000, 16.000000)">
                <g id="Wall">
                    <g id="Group-28" transform="translate(3.583333, 79.952381)">
                        <path d="M46.5833333,4.57142857 L35.8333333,4.57142857 L35.8333333,3 C35.8333333,1.8954305 34.9379028,1 33.8333333,1 L29.4722222,1 C28.3676527,1 27.4722222,1.8954305 27.4722222,3 L27.4722222,3 L27.4722222,4.57142857 L16.7222222,4.57142857 L16.7222222,3 C16.7222222,1.8954305 15.8267917,1 14.7222222,1 L10.3611111,1 C9.25654161,1 8.36111111,1.8954305 8.36111111,3 L8.36111111,3 L8.36111111,4.57142857 L0,4.57142857 L0,45.047619 L62.1111111,45.047619 L62.1111111,4.57142857 L54.9444444,4.57142857 L54.9444444,3 C54.9444444,1.8954305 54.0490139,1 52.9444444,1 L48.5833333,1 C47.4787638,1 46.5833333,1.8954305 46.5833333,3 L46.5833333,3 L46.5833333,4.57142857 Z" id="Combined-Shape" fill="#FBCC4B"></path>
                        <g id="Group-26" transform="translate(7.722222, 0.666667)">
                            <ellipse id="Oval-12" fill-opacity="0.8" fill="#000000" cx="10.7916667" cy="18.7857143" rx="1.79166667" ry="1.78571429"></ellipse>
                            <ellipse id="Oval-12" fill-opacity="0.8" fill="#000000" cx="29.9027778" cy="18.7857143" rx="1.79166667" ry="1.78571429"></ellipse>
                            <polyline id="Path-16" stroke-opacity="0.8" stroke="#000000" stroke-width="2" stroke-linecap="round" stroke-linejoin="round" points="18.5555556 18.1904762 18.5555556 25.1946909 24.3547883 25.1946909"></polyline>
                            <path d="M12.5833333,28.9047619 C12.5833333,35.3630638 27.5539358,35.4524764 27.5539358,28.9047619" id="Path-17" stroke-opacity="0.8" stroke="#000000" stroke-width="2" stroke-linecap="round" stroke-linejoin="round"></path>
                        </g>
                        <g id="Group-27" transform="translate(8.361111, 1.000000)"></g>
                    </g>
                    <g id="Group-28" transform="translate(63.000000, 80.000000)">
                        <path d="M0,1 L62.1111111,1 L62.1111111,45.047619 L0,45.047619 L0,1 Z" id="Combined-Shape" fill="#3E5DB8"></path>
                        <g id="Group-26" transform="translate(7.722222, 0.666667)">
                            <ellipse id="Oval-12" fill-opacity="0.8" fill="#000000" cx="10.7916667" cy="18.7857143" rx="1.79166667" ry="1.78571429"></ellipse>
                            <ellipse id="Oval-12" fill-opacity="0.8" fill="#000000" cx="29.9027778" cy="18.7857143" rx="1.79166667" ry="1.78571429"></ellipse>
                            <polyline id="Path-16" stroke-opacity="0.8" stroke="#000000" stroke-width="2" stroke-linecap="round" stroke-linejoin="round" points="18.5555556 18.1904762 18.5555556 25.1946909 24.3547883 25.1946909"></polyline>
                            <path d="M12.5833333,28.9047619 C12.5833333,35.3630638 27.5539358,35.4524764 27.5539358,28.9047619" id="Path-17" stroke-opacity="0.8" stroke="#000000" stroke-width="2" stroke-linecap="round" stroke-linejoin="round"></path>
                        </g>
                        <g id="Group-27" transform="translate(46.361111, 1.000000)"></g>
                    </g>
                    <g id="Group-28" transform="translate(23.888889, 40.476190)">
                        <path d="M46.5833333,3.57142857 L35.8333333,3.57142857 L35.8333333,2 C35.8333333,0.8954305 34.9379028,-2.02906125e-16 33.8333333,0 L29.4722222,0 C28.3676527,2.02906125e-16 27.4722222,0.8954305 27.4722222,2 L27.4722222,2 L27.4722222,3.57142857 L16.7222222,3.57142857 L16.7222222,2 C16.7222222,0.8954305 15.8267917,-2.02906125e-16 14.7222222,0 L10.3611111,0 C9.25654161,2.02906125e-16 8.36111111,0.8954305 8.36111111,2 L8.36111111,2 L8.36111111,3.57142857 L0,3.57142857 L0,44.047619 L62.1111111,44.047619 L62.1111111,3.57142857 L54.9444444,3.57142857 L54.9444444,2 C54.9444444,0.8954305 54.0490139,-4.2495073e-16 52.9444444,-2.22044605e-16 L52.9444444,0 L48.5833333,0 L48.5833333,-2.22044605e-16 C47.4787638,-1.91384796e-17 46.5833333,0.8954305 46.5833333,2 L46.5833333,3.57142857 Z" id="Combined-Shape" fill="#EC99B6"></path>
                        <g id="Group-26" transform="translate(28.083333, 25.000000) scale(-1, 1) translate(-28.083333, -25.000000) translate(16.583333, 16.000000)">
                            <ellipse id="Oval-12" fill-opacity="0.8" fill="#000000" cx="1.95833333" cy="2.45238095" rx="1.79166667" ry="1.78571429"></ellipse>
                            <ellipse id="Oval-12" fill-opacity="0.8" fill="#000000" cx="21.0694444" cy="2.45238095" rx="1.79166667" ry="1.78571429"></ellipse>
                            <polyline id="Path-16" stroke-opacity="0.8" stroke="#000000" stroke-width="2" stroke-linecap="round" stroke-linejoin="round" points="9.72222222 1.85714286 9.72222222 8.8613576 15.521455 8.8613576"></polyline>
                            <path d="M3.75,12.5714286 C3.75,19.0297304 18.7206025,19.1191431 18.7206025,12.5714286" id="Path-17" stroke-opacity="0.8" stroke="#000000" stroke-width="2" stroke-linecap="round" stroke-linejoin="round"></path>
                        </g>
                        <g id="Group-27" transform="translate(46.583333, 0.000000)"></g>
                    </g>
                    <g id="Group-28" transform="translate(79.888889, 40.476190)">
                        <path d="M46.5833333,3.57142857 L35.8333333,3.57142857 L35.8333333,2 C35.8333333,0.8954305 34.9379028,-2.02906125e-16 33.8333333,0 L29.4722222,0 C28.3676527,2.02906125e-16 27.4722222,0.8954305 27.4722222,2 L27.4722222,2 L27.4722222,3.57142857 L16.7222222,3.57142857 L16.7222222,2 C16.7222222,0.8954305 15.8267917,-2.02906125e-16 14.7222222,0 L10.3611111,0 C9.25654161,2.02906125e-16 8.36111111,0.8954305 8.36111111,2 L8.36111111,2 L8.36111111,3.57142857 L0,3.57142857 L0,44.047619 L62.1111111,44.047619 L62.1111111,3.57142857 L54.9444444,3.57142857 L54.9444444,2 C54.9444444,0.8954305 54.0490139,-4.2495073e-16 52.9444444,-2.22044605e-16 L52.9444444,0 L48.5833333,0 L48.5833333,-2.22044605e-16 C47.4787638,-1.91384796e-17 46.5833333,0.8954305 46.5833333,2 L46.5833333,3.57142857 Z" id="Combined-Shape" fill="#E04A2D"></path>
                        <g id="Group-26" transform="translate(28.083333, 25.000000) scale(-1, 1) translate(-28.083333, -25.000000) translate(16.583333, 16.000000)">
                            <ellipse id="Oval-12" fill-opacity="0.8" fill="#000000" cx="1.95833333" cy="2.45238095" rx="1.79166667" ry="1.78571429"></ellipse>
                            <ellipse id="Oval-12" fill-opacity="0.8" fill="#000000" cx="21.0694444" cy="2.45238095" rx="1.79166667" ry="1.78571429"></ellipse>
                            <polyline id="Path-16" stroke-opacity="0.8" stroke="#000000" stroke-width="2" stroke-linecap="round" stroke-linejoin="round" points="9.72222222 1.85714286 9.72222222 8.8613576 15.521455 8.8613576"></polyline>
                            <path d="M3.75,12.5714286 C3.75,19.0297304 18.7206025,19.1191431 18.7206025,12.5714286" id="Path-17" stroke-opacity="0.8" stroke="#000000" stroke-width="2" stroke-linecap="round" stroke-linejoin="round"></path>
                        </g>
                        <g id="Group-27" transform="translate(46.583333, 0.000000)"></g>
                    </g>
                    <g id="Group-28">
                        <rect id="Rectangle-19" fill="#23CF8D" x="0" y="3.57142857" width="62.1111111" height="40.4761905"></rect>
                        <g id="Group-26" transform="translate(16.722222, 16.666667)">
                            <ellipse id="Oval-12" fill-opacity="0.8" fill="#000000" cx="1.79166667" cy="1.78571429" rx="1.79166667" ry="1.78571429"></ellipse>
                            <ellipse id="Oval-12" fill-opacity="0.8" fill="#000000" cx="20.9027778" cy="1.78571429" rx="1.79166667" ry="1.78571429"></ellipse>
                            <polyline id="Path-16" stroke-opacity="0.8" stroke="#000000" stroke-width="2" stroke-linecap="round" stroke-linejoin="round" points="9.55555556 1.19047619 9.55555556 8.19469094 15.3547883 8.19469094"></polyline>
                            <path d="M3.58333333,11.9047619 C3.58333333,18.3630638 18.5539358,18.4524764 18.5539358,11.9047619" id="Path-17" stroke-opacity="0.8" stroke="#000000" stroke-width="2" stroke-linecap="round" stroke-linejoin="round"></path>
                        </g>
                        <g id="Group-27" transform="translate(8.361111, 0.000000)" fill="#23CF8D">
                            <rect id="Rectangle-20" x="0" y="0" width="8.36111111" height="7.14285714" rx="2"></rect>
                            <rect id="Rectangle-20" x="19.1111111" y="0" width="8.36111111" height="7.14285714" rx="2"></rect>
                            <rect id="Rectangle-20" x="38.2222222" y="0" width="8.36111111" height="7.14285714" rx="2"></rect>
                        </g>
                    </g>
                </g>
                <path d="M62.2443264,43.9186036 L23.9800782,43.9186036" id="Path-91" stroke="#060606" stroke-width="2" stroke-linecap="round" stroke-linejoin="round"></path>
                <path d="M80,84 L80,44" id="Path-91" stroke="#060606" stroke-width="2" stroke-linecap="round" stroke-linejoin="round"></path>
                <path d="M63,124 L63,85" id="Path-91" stroke="#060606" stroke-width="2" stroke-linecap="round" stroke-linejoin="round"></path>
                <path d="M62.2642482,85 L24,85" id="Path-91" stroke="#060606" stroke-width="2" stroke-linecap="round" stroke-linejoin="round"></path>
                <path d="M124,85 L62,85" id="Path-91" stroke="#060606" stroke-width="2" stroke-linecap="round" stroke-linejoin="round"></path>
            </g>
        </g>
    </g>
</svg>