<?xml version="1.0" encoding="UTF-8"?>
<svg width="200px" height="170px" viewBox="0 0 200 170" version="1.1" xmlns="http://www.w3.org/2000/svg" xmlns:xlink="http://www.w3.org/1999/xlink">
    <!-- Generator: Sketch 44.1 (41455) - http://www.bohemiancoding.com/sketch -->
    <title>status-quo</title>
    <desc>Created with Sketch.</desc>
    <defs>
        <path d="M54.0740891,21.8174857 C56.0761346,17.2167961 60.6624058,14 66,14 C73.1797017,14 79,19.8202983 79,27 C79,34.1797017 73.1797017,40 66,40 C63.1844134,40 60.577888,39.1049028 58.4494591,37.5837438 L58.7915344,38.3797689 L68.7977286,55.7059319 L68.7977286,55.7059319 C76.1285884,68.3996364 77.7134657,83.6125587 73.1564815,97.5447349 C70.5971784,105.369353 65.1977091,111.676831 58.3248486,115.47619 L60.2807182,115.47619 C62.9106456,115.47619 65.042623,117.608168 65.042623,120.238095 C65.042623,122.868023 62.9106456,125 60.2807182,125 L16.0996097,125 C13.4696823,125 11.3377049,122.868023 11.3377049,120.238095 C11.3377049,117.608168 13.4696823,115.47619 16.0996097,115.47619 L16.0996097,115.47619 L18.4675667,115.47619 C11.4313508,111.612218 5.91376645,105.153405 3.34008802,97.1390121 C-1.21833555,82.9441551 0.455502957,67.4821478 7.94604957,54.5916512 L16.7429225,39.453095 C15.5576278,39.8088482 14.3011369,40 13,40 C5.82029825,40 4.4408921e-16,34.1797017 4.4408921e-16,27 C4.4408921e-16,19.8202983 5.82029825,14 13,14 C16.685348,14 20.0125231,15.5335199 22.3782187,17.997253 C22.1328526,15.5926178 21.5775647,13.2097046 20.7104603,10.9090651 L20.7104603,10.9090651 L20.6774325,10.8214343 L20.6774325,10.8214343 C19.1191974,6.68705603 21.207574,2.07228106 25.3419523,0.514045923 C26.243789,0.174146299 27.1996225,8.8817842e-14 28.1633866,8.70414851e-14 L48.9566407,7.28306304e-14 L48.9566407,8.08242362e-14 C53.3066479,7.1942452e-14 56.8330256,3.52637764 56.8330256,7.87638491 C56.8330256,8.91747664 56.6266296,9.94823933 56.2257734,10.9090651 L56.2257734,10.9090651 C54.7696201,14.3993676 54.0527905,18.1105096 54.0740891,21.8174857 Z M13.1170213,33.7340426 C16.7715012,33.7340426 19.7340426,30.7715012 19.7340426,27.1170213 C19.7340426,23.4625413 16.7715012,20.5 13.1170213,20.5 C9.46254134,20.5 6.5,23.4625413 6.5,27.1170213 C6.5,30.7715012 9.46254134,33.7340426 13.1170213,33.7340426 Z M66.1170213,34.2340426 C70.0476436,34.2340426 73.2340426,31.0476436 73.2340426,27.1170213 C73.2340426,23.186399 70.0476436,20 66.1170213,20 C62.186399,20 59,23.186399 59,27.1170213 C59,31.0476436 62.186399,34.2340426 66.1170213,34.2340426 Z" id="path-1"></path>
    </defs>
    <g id="Classy" stroke="none" stroke-width="1" fill="none" fill-rule="evenodd">
        <g id="status-quo">
            <g transform="translate(32.000000, 34.000000)">
                <g id="Group-68">
                    <g id="Group-67">
                        <g id="Group-63">
                            <g id="Group-69">
                                <mask id="mask-2" fill="white">
                                    <use xlink:href="#path-1"></use>
                                </mask>
                                <use id="Combined-Shape" fill="#0075FF" xlink:href="#path-1"></use>
                                <path d="M21.331522,11.2862837 C43.4561497,11.2862837 55.2517704,11.163223 56.7183842,10.9171016" id="Path-79" stroke="#060606" stroke-width="2" stroke-linecap="round" stroke-linejoin="round" mask="url(#mask-2)"></path>
                            </g>
                            <path d="M17.3878481,115.321798 L59.5473767,115.321798" id="Path-62" stroke="#060606" stroke-width="2" stroke-linecap="round" stroke-linejoin="round"></path>
                        </g>
                        <polyline id="Path-76" stroke="#060606" stroke-width="2" stroke-linecap="round" stroke-linejoin="round" transform="translate(54.527586, 69.083039) rotate(330.000000) translate(-54.527586, -69.083039) " points="73.52044 64.408569 65.8030917 73.5799607 64.714596 63.3590725 50.167795 77.1233998 44.0878819 61.0426785 35.5347318 75.8571691"></polyline>
                        <polyline id="Path-77" stroke="#060606" stroke-width="2" stroke-linecap="round" stroke-linejoin="round" points="58.2847863 63.7171663 46.0597302 58.8732435 53.91919 51.8595205 42.1510326 43.9261674"></polyline>
                    </g>
                    <g id="Group-66" transform="translate(54.000000, 11.000000)">
                        <g id="Group-62" transform="translate(56.922096, 56.922096) rotate(-45.000000) translate(-56.922096, -56.922096) translate(32.922096, 0.422096)">
                            <rect id="Rectangle-54" fill="#FFD600" x="10.5311475" y="0" width="13.7245902" height="112.5" rx="6.86229508"></rect>
                            <path d="M0,14 L0,19.9820857 L0,19.9820857 C-1.24339826e-15,23.8480789 3.13400675,26.9820857 7,26.9820857 L41.7476864,26.9820857 L41.7476864,26.9820857 C45.1039001,26.9820857 47.8246488,24.2613369 47.8246488,20.9051233 C47.8246488,19.4728732 47.3187734,18.0866482 46.3962826,16.9910428 L40.081648,9.49140488 L40.081648,9.49140488 C38.7516114,7.91177386 36.7919721,7 34.7269706,7 L7,7 L7,7 C3.13400675,7 -4.73447626e-16,10.1340068 0,14 Z" id="Path-75" fill="#122760"></path>
                        </g>
                    </g>
                    <rect id="Rectangle-6" fill="#122760" transform="translate(68.142136, 54.142136) rotate(-315.000000) translate(-68.142136, -54.142136) " x="55.1421356" y="47.1421356" width="26" height="14" rx="5"></rect>
                    <path d="M123.5,81.5 L118.972307,86.0276926" id="Line" stroke="#060606" stroke-width="2" stroke-linecap="round" stroke-linejoin="round"></path>
                    <path d="M126.5,84.5 L121.972307,89.0276926" id="Line" stroke="#060606" stroke-width="2" stroke-linecap="round" stroke-linejoin="round"></path>
                    <path d="M129.5,87.5 L124.972307,92.0276926" id="Line" stroke="#060606" stroke-width="2" stroke-linecap="round" stroke-linejoin="round"></path>
                </g>
                <path d="M107.5,21.5 L119.010864,9.98913557" id="Line" stroke="#060606" stroke-width="2" stroke-linecap="round" stroke-linejoin="round"></path>
                <path d="M75.5,84.5 L69.5,84.5" id="Line" stroke="#060606" stroke-width="2" stroke-linecap="round" stroke-linejoin="round"></path>
                <path d="M74.5,89.5 L68.5,89.5" id="Line" stroke="#060606" stroke-width="2" stroke-linecap="round" stroke-linejoin="round"></path>
                <path d="M73.5,94.5 L67.5,94.5" id="Line" stroke="#060606" stroke-width="2" stroke-linecap="round" stroke-linejoin="round"></path>
                <path d="M123.5,41.5 L135.010864,29.9891356" id="Line" stroke="#060606" stroke-width="2" stroke-linecap="round" stroke-linejoin="round"></path>
                <path d="M114.5,33.5 L131,17" id="Line" stroke="#060606" stroke-width="2" stroke-linecap="round" stroke-linejoin="round"></path>
            </g>
        </g>
    </g>
</svg>