<?xml version="1.0" encoding="UTF-8"?>
<svg width="180px" height="130px" viewBox="0 0 180 130" version="1.1" xmlns="http://www.w3.org/2000/svg" xmlns:xlink="http://www.w3.org/1999/xlink">
    <!-- Generator: Sketch 44.1 (41455) - http://www.bohemiancoding.com/sketch -->
    <title>value-epic-work</title>
    <desc>Created with Sketch.</desc>
    <defs></defs>
    <g id="Classy" stroke="none" stroke-width="1" fill="none" fill-rule="evenodd">
        <g id="value-epic-work">
            <g id="Group-35" transform="translate(19.000000, -23.000000)">
                <path d="M62.3120024,48.0881446 C83.9632554,46.0525278 94.9674388,53.720102 101.346923,75.3783054" id="Path-188" stroke="#060606" stroke-width="2" stroke-linecap="round" stroke-linejoin="round"></path>
                <g id="Group-33" transform="translate(71.738114, 85.178363) rotate(35.000000) translate(-71.738114, -85.178363) translate(3.238114, 59.678363)">
                    <rect id="Rectangle-80" fill="#7ED3D9" x="0" y="0" width="137" height="51"></rect>
                    <rect id="Rectangle-81" stroke="#060606" stroke-width="2" stroke-linecap="round" stroke-linejoin="round" x="8" y="9" width="9" height="7" rx="1"></rect>
                    <rect id="Rectangle-81" stroke="#060606" stroke-width="2" stroke-linecap="round" stroke-linejoin="round" x="23" y="9" width="9" height="7" rx="1"></rect>
                    <rect id="Rectangle-81" stroke="#060606" stroke-width="2" stroke-linecap="round" stroke-linejoin="round" x="38" y="9" width="9" height="7" rx="1"></rect>
                    <rect id="Rectangle-81" stroke="#060606" stroke-width="2" stroke-linecap="round" stroke-linejoin="round" x="53" y="9" width="9" height="7" rx="1"></rect>
                    <rect id="Rectangle-81" stroke="#060606" stroke-width="2" stroke-linecap="round" stroke-linejoin="round" x="69" y="9" width="9" height="7" rx="1"></rect>
                    <rect id="Rectangle-81" stroke="#060606" stroke-width="2" stroke-linecap="round" stroke-linejoin="round" x="85" y="9" width="9" height="7" rx="1"></rect>
                    <rect id="Rectangle-81" stroke="#060606" stroke-width="2" stroke-linecap="round" stroke-linejoin="round" x="100" y="9" width="9" height="7" rx="1"></rect>
                    <rect id="Rectangle-81" stroke="#060606" stroke-width="2" stroke-linecap="round" stroke-linejoin="round" x="115" y="9" width="9" height="7" rx="1"></rect>
                    <rect id="Rectangle-81" stroke="#060606" stroke-width="2" stroke-linecap="round" stroke-linejoin="round" x="8" y="22" width="9" height="7" rx="1"></rect>
                    <rect id="Rectangle-81" stroke="#060606" stroke-width="2" stroke-linecap="round" stroke-linejoin="round" x="23" y="22" width="9" height="7" rx="1"></rect>
                    <rect id="Rectangle-81" stroke="#060606" stroke-width="2" stroke-linecap="round" stroke-linejoin="round" x="38" y="22" width="9" height="7" rx="1"></rect>
                    <rect id="Rectangle-81" stroke="#060606" stroke-width="2" stroke-linecap="round" stroke-linejoin="round" x="53" y="22" width="9" height="7" rx="1"></rect>
                    <rect id="Rectangle-81" stroke="#060606" stroke-width="2" stroke-linecap="round" stroke-linejoin="round" x="69" y="22" width="9" height="7" rx="1"></rect>
                    <rect id="Rectangle-81" stroke="#060606" stroke-width="2" stroke-linecap="round" stroke-linejoin="round" x="85" y="22" width="9" height="7" rx="1"></rect>
                    <rect id="Rectangle-81" stroke="#060606" stroke-width="2" stroke-linecap="round" stroke-linejoin="round" x="100" y="22" width="9" height="7" rx="1"></rect>
                    <rect id="Rectangle-81" stroke="#060606" stroke-width="2" stroke-linecap="round" stroke-linejoin="round" x="8" y="35" width="9" height="7" rx="1"></rect>
                    <rect id="Rectangle-81" stroke="#060606" stroke-width="2" stroke-linecap="round" stroke-linejoin="round" x="23" y="35" width="9" height="7" rx="1"></rect>
                    <path d="M39,35 L77,35 L77,35 C77.5522847,35 78,35.4477153 78,36 L78,41 L78,41 C78,41.5522847 77.5522847,42 77,42 L39,42 L39,42 C38.4477153,42 38,41.5522847 38,41 L38,36 L38,36 C38,35.4477153 38.4477153,35 39,35 Z" id="Rectangle-81" stroke="#060606" stroke-width="2" stroke-linecap="round" stroke-linejoin="round"></path>
                    <rect id="Rectangle-81" stroke="#060606" stroke-width="2" stroke-linecap="round" stroke-linejoin="round" x="85" y="35" width="9" height="7" rx="1"></rect>
                    <path d="M101,35 L115.364554,35 L115.054976,22.2098777 L124,22.2098777 L124,35 L124,41 L124,41 C124,41.5522847 123.552285,42 123,42 L101,42 L101,42 C100.447715,42 100,41.5522847 100,41 L100,36 L100,36 C100,35.4477153 100.447715,35 101,35 Z" id="Rectangle-81" stroke="#060606" stroke-width="2" stroke-linecap="round" stroke-linejoin="round"></path>
                </g>
                <g id="Group-32" transform="translate(71.500000, 85.500000) rotate(-330.000000) translate(-71.500000, -85.500000) translate(34.000000, 9.000000)">
                    <g id="Group-20" transform="translate(42.663039, 60.711269) rotate(-339.000000) translate(-42.663039, -60.711269) translate(32.163039, -0.288731)">
                        <polygon id="Triangle" fill="#EC99B6" points="10.4241016 0 20.8482031 28.8667428 0 28.8667428"></polygon>
                        <path d="M15.6361523,14.4333714 L10.4241016,0 L5.21205078,14.4333714 L15.6361523,14.4333714 Z" id="Combined-Shape" fill="#381A3D"></path>
                        <rect id="Rectangle-76" fill="#FBCC4B" x="0" y="28.8667428" width="20.8482031" height="92.2132061"></rect>
                        <path d="M6.42933808,120.715362 L6.42933808,29.272598" id="Path-177" stroke="#060606" stroke-width="2" stroke-linecap="round" stroke-linejoin="round"></path>
                        <path d="M14.4478777,120.715362 L14.4478777,29.272598" id="Path-177" stroke="#060606" stroke-width="2" stroke-linecap="round" stroke-linejoin="round"></path>
                    </g>
                    <rect id="Rectangle-78" fill="#381A3D" transform="translate(19.213517, 119.469561) rotate(20.000000) translate(-19.213517, -119.469561) " x="1.54358046" y="114.969561" width="35.339874" height="9" rx="2"></rect>
                    <rect id="Rectangle-79" fill="#381A3D" transform="translate(12.499866, 136.002943) rotate(21.000000) translate(-12.499866, -136.002943) " x="5.49986647" y="120.502943" width="14" height="31"></rect>
                </g>
                <path d="M78.8017798,120.941832 C71.2446851,125.125906 63.2575978,132.768464 59.430498,137.776548 C54.9547179,143.633486 46.5336201,128.791174 38.5823362,146.104454" id="Path-189" stroke="#060606" stroke-width="2" stroke-linecap="round" stroke-linejoin="round"></path>
                <rect id="Rectangle-82" fill="#060606" transform="translate(39.500000, 146.000000) rotate(11.000000) translate(-39.500000, -146.000000) " x="37" y="143" width="5" height="6" rx="1"></rect>
            </g>
        </g>
    </g>
</svg>