<?xml version="1.0" encoding="UTF-8"?>
<svg width="180px" height="130px" viewBox="0 0 180 130" version="1.1" xmlns="http://www.w3.org/2000/svg" xmlns:xlink="http://www.w3.org/1999/xlink">
    <!-- Generator: Sketch 44.1 (41455) - http://www.bohemiancoding.com/sketch -->
    <title>value-learning-machines</title>
    <desc>Created with Sketch.</desc>
    <defs></defs>
    <g id="Classy" stroke="none" stroke-width="1" fill="none" fill-rule="evenodd">
        <g id="value-learning-machines">
            <g id="thinker" transform="translate(31.000000, -12.000000)">
                <g transform="translate(66.500000, 79.000000) scale(-1, 1) translate(-66.500000, -79.000000) translate(15.000000, 0.000000)" id="learning-machines">
                    <g>
                        <g id="thinker-girl">
                            <g>
                                <path d="M52.0728692,93.2127595 C62.3599962,82.6266856 74.9032166,78.9339896 89.9852241,93.2127595 C100.039896,102.731939 103.791078,118.717743 101.238771,141.17017 L43.3821138,141.17017 C42.3178661,116.255946 45.2147845,100.270142 52.0728692,93.2127595 Z" id="Path-145" fill="#FDDAB2"></path>
                                <polygon id="Path-121" fill="#FDDAB2" points="41.5676843 80.4366337 49.9335104 63.7430058 47.1485729 54.5995747 37.2015816 76.812023"></polygon>
                                <g id="Group-16" transform="translate(44.576687, 31.320178) scale(-1, 1) rotate(37.000000) translate(-44.576687, -31.320178) translate(22.576687, 9.820178)">
                                    <g id="head" transform="translate(0.000000, -0.000000)">
                                        <ellipse id="Oval-11" fill="#FDDAB2" cx="32.5007316" cy="18.4720267" rx="11.0620619" ry="11.1574046"></ellipse>
                                        <path d="M23.6393773,13.5397537 C20.9907435,14.036985 17.8784115,13.4416809 15.6934759,15.0314476 C13.4921042,16.6331733 13.691732,20.3145226 11.7290631,22.2057394 C8.07883541,25.7230786 -1.02541788,25.6864291 0.0948064189,33.7469914 C1.84541935,46.3435085 16.8653916,42.8596177 19.4444422,33.0255435 C20.3232796,29.6744841 19.5133335,25.9793502 20.6055911,22.6927645 C23.6889601,13.414957 24.5368495,17.2055665 24.4741902,14.646803 L23.6393773,13.5397537 Z" id="Path-19" fill="#FDDAB2"></path>
                                        <g id="Group-24" transform="translate(1.881353, 13.539754)" fill="#CDA77C">
                                            <path d="M0.23991646,25.7596056 C5.00804343,31.228946 15.2071517,27.4286889 17.2902292,19.4857898 C18.1690666,16.1347304 17.3591205,12.4395964 18.4513782,9.15301082 C21.5347471,-0.124796687 22.3826365,3.66581282 22.3199772,1.10704929 L21.4851643,0 C21.3622669,0.0230716689 21.2383713,0.0437911249 21.1136162,0.0624857981 C20.7498628,0.619782766 19.7174133,-0.221508405 16.6822154,7.14841566 C15.3072067,10.4871468 15.880846,14.3891233 14.723113,17.8104309 C12.573247,24.1636689 5.42741177,27.5101582 0.23991646,25.7596056 Z" id="Combined-Shape"></path>
                                        </g>
                                        <path d="M23.3679709,5.39126541 C25.9808985,5.64419125 30.9162067,6.18058252 33.2081461,14.7097573 C33.479505,15.7195865 33.5645123,23.0639344 32.8151581,23.7874069 C32.0410656,24.5347633 27.7183762,22.1003223 24.4054294,18.1062314 C22.7065491,16.0580601 20.0432423,11.2632972 20.0060882,9.26551958 C19.9575622,6.65627764 20.7550433,5.13833957 23.3679709,5.39126541 Z" id="Path-18" fill="#FDDAB2" transform="translate(26.703727, 14.642868) scale(-1, 1) rotate(10.000000) translate(-26.703727, -14.642868) "></path>
                                        <path d="M26.2865058,3.58992702 C33.785228,2.01825515 39.4452463,2.53548785 41.7371857,11.0646626 C42.0085446,12.0744918 42.6810133,13.473843 41.9316592,14.1973155 C39.7734182,16.2810137 28.0995283,6.45947829 26.4980549,4.32381363 L26.2865058,3.58992702 Z" id="Path-18" fill="#FDDAB2" transform="translate(34.280555, 8.687952) rotate(-24.000000) translate(-34.280555, -8.687952) "></path>
                                        <g id="face" transform="translate(39.280056, 15.968965) scale(-1, 1) rotate(23.000000) translate(-39.280056, -15.968965) translate(37.780056, 13.968965)" fill="#000000" fill-opacity="0.8">
                                            <ellipse id="Oval-12" cx="1.48508692" cy="2.17335778" rx="1.45707313" ry="1.4563803"></ellipse>
                                        </g>
                                    </g>
                                </g>
                                <rect id="Rectangle-65" fill="#FDDAB2" transform="translate(47.389399, 42.188917) rotate(-57.000000) translate(-47.389399, -42.188917) " x="43.695106" y="36.4199328" width="7.38858495" height="11.537968"></rect>
                                <path d="M59.3863016,39.6061795 L59.3863016,39.6061795 L59.3863016,39.6061795 C69.157958,39.3408723 77.2945246,47.0472909 77.5598318,56.8189473 C77.5649747,57.0083676 77.5670754,57.1978583 77.5661331,57.3873461 L77.4327633,84.2066462 L56.2063919,78.9943863 L47.7272675,57.1419298 L47.7272675,57.1419298 C45.1538674,50.5097456 48.444162,43.0471451 55.0763461,40.473745 C56.4526666,39.9397092 57.9105487,39.6462473 59.3863016,39.6061795 Z" id="Rectangle-62" fill="#FDDAB2" transform="translate(62.208923, 61.903088) rotate(-21.000000) translate(-62.208923, -61.903088) "></path>
                                <path d="M32.2184492,80.4685663 C29.6404003,73.6808972 26.0118133,51.6908923 29.8908459,47.8237149 C33.7698784,43.9565374 38.4901053,45.3113065 40.3842548,46.8596518 C41.6470212,47.8918819 39.5436654,50.2230031 34.0741876,53.8530151 C36.1147312,68.5272591 37.5955992,77.3615229 38.5167918,80.3558065 C39.8985805,84.8472318 34.7964981,87.2562353 32.2184492,80.4685663 Z" id="Path-116" fill="#FDDAB2" transform="translate(34.466019, 65.000886) rotate(-24.000000) translate(-34.466019, -65.000886) "></path>
                                <g id="Group-2" transform="translate(43.960723, 106.739734) rotate(22.000000) translate(-43.960723, -106.739734) translate(13.960723, 64.239734)" fill="#FDDAB2">
                                    <g id="Group" transform="translate(14.244557, 60.385762)">
                                        <polygon id="Path-122" points="9.29345748 0.553498083 13.8138549 7.28110009 9.35591905 9.81915968 4.6373819 2.36651644"></polygon>
                                        <path d="M18.7624756,9.82995815 L18.7624756,19.1449114 L1.95973442,19.1449114 C2.09933288,15.4348301 4.00002101,13.5797895 7.66179882,13.5797895 C13.1544655,13.5797895 11.2684587,9.82995815 12.5896401,9.82995815 C13.4704277,9.82995815 14.2058787,9.82995815 14.795993,9.82995815 L18.7624756,9.82995815 Z" id="Path-53" transform="translate(10.361105, 14.487435) rotate(-40.000000) translate(-10.361105, -14.487435) "></path>
                                    </g>
                                    <path d="M24.0534023,30.937086 C18.2010873,34.1129377 14.8216349,36.7806354 13.9150453,38.9401792 C11.9845062,43.538824 16.3857366,50.8718508 27.1187364,60.9392596 L19.8760631,66.389533 C8.97137742,56.7064768 2.51241639,47.9523642 0.499180069,40.1271952 C-0.381282827,36.7049586 4.62459923,30.5568095 15.5168262,21.6827479 C19.0456144,17.410272 25.5281048,12.9607903 34.9642976,8.33430262 L54.9707044,0.228102163 C59.695761,8.94607831 61.1519788,16.2414833 58.1570858,20.0280449 C53.6647463,25.7078874 34.0815921,27.249719 25.3745404,30.7776442 L24.0534023,30.937086 Z" id="Combined-Shape"></path>
                                </g>
                                <path d="M46.7859252,53.8264476 C46.115623,66.5886481 44.6559057,74.1584675 42.4067733,76.5359056 C39.0330746,80.1020629 24.5781196,86.1497843 22.0966169,88.0123201 C19.6151142,89.874856 19.5230769,92.0757699 19.0711484,94.0508724 C18.61922,96.0259749 23.0292011,96.0365256 26.7588372,92.0244229 C30.4884734,88.0123201 49.4008044,81.4377892 50.8539822,79.4162634 C51.8227674,78.0685795 53.441769,70.3090809 55.7109872,56.1377676 L46.7859252,53.8264476 Z" id="arm" fill="#FDDAB2" transform="translate(37.375025, 74.587107) rotate(6.000000) translate(-37.375025, -74.587107) "></path>
                            </g>
                            <path d="M27.3495935,46.8256531 C30.8548412,46.2288124 32.8971334,46.1859327 33.4764702,46.6970143" id="Path-125" stroke="#060606" stroke-linecap="round" stroke-linejoin="round"></path>
                        </g>
                    </g>
                </g>
                <g id="Group-9" transform="translate(0.000000, 100.000000)" fill="#23CF8D">
                    <path d="M19.7814937,40.6074645 C11.379397,24.7324093 7.79256449,13.2197708 9.02099603,6.06954903 C10.8636433,-4.65578361 19.8166587,0.84168197 21.7952775,13.4881971 C23.1143566,21.9192073 22.4430954,30.958963 19.7814937,40.6074645 Z" id="Path-181"></path>
                    <path d="M13.2174461,44.1430303 C8.28890132,34.6164214 6.17936005,27.7883651 6.88882233,23.6588613 C7.95301575,17.4646057 13.6857759,20.1101797 14.8284975,27.4139856 C15.590312,32.2831895 15.0532949,37.8595377 13.2174461,44.1430303 Z" id="Path-181" transform="translate(10.959266, 32.169871) rotate(-36.000000) translate(-10.959266, -32.169871) "></path>
                </g>
                <g id="Group-13" transform="translate(2.000000, 77.554217)" stroke="#060606" stroke-linecap="round" stroke-linejoin="round">
                    <path d="M0.875288986,62.4941519 L101.872628,62.4941519" id="Path-154" stroke-width="2"></path>
                    <path d="M30.2269795,26.5954635 C39.4721624,47.8648662 32.7377556,38.6892439 50.6293498,53.9742063" id="Path-155" stroke-width="2"></path>
                    <path d="M44.2143948,29.4553226 C48.7760217,39.7836877 45.2728456,36.9788125 52.0407842,40.4227822" id="Path-156" stroke-width="2"></path>
                    <path d="M64.2704592,0.597105119 C71.9062431,1.12133052 76.755448,1.81497563 78.8180737,2.67804045" id="Path-167"></path>
                    <path d="M40.6574457,12.2639751 C50.785319,12.1771258 57.2022216,13.1385632 59.9081535,15.1482872" id="Path-180" stroke-width="2"></path>
                </g>
            </g>
        </g>
    </g>
</svg>